<mxfile host="app.diagrams.net" modified="2021-03-03T17:21:22.301Z" agent="5.0 (X11; Linux x86_64) AppleWebKit/537.36 (KHTML, like Gecko) Chrome/88.0.4324.182 Safari/537.36" etag="rldD91qumUnELlypLeT7" version="14.4.3" type="github">
  <diagram id="4cvLQyk9oTmNPti7NdzI" name="Page-1">
    <mxGraphModel dx="868" dy="402" grid="0" gridSize="10" guides="1" tooltips="1" connect="1" arrows="1" fold="1" page="1" pageScale="1" pageWidth="850" pageHeight="1100" math="0" shadow="0">
      <root>
        <mxCell id="0" />
        <mxCell id="1" parent="0" />
        <mxCell id="tzSJRUm39LDdc5LxJkue-41" value="" style="edgeStyle=orthogonalEdgeStyle;rounded=0;orthogonalLoop=1;jettySize=auto;html=1;strokeWidth=3;curved=1;" parent="1" source="tzSJRUm39LDdc5LxJkue-39" target="tzSJRUm39LDdc5LxJkue-40" edge="1">
          <mxGeometry relative="1" as="geometry" />
        </mxCell>
        <mxCell id="tzSJRUm39LDdc5LxJkue-39" value="Браузер получил адрес: https://github.com/kanigreg&lt;br&gt;&lt;br&gt;&lt;div&gt;&lt;span&gt;В нем есть:&lt;/span&gt;&lt;/div&gt;&lt;div&gt;&lt;ul&gt;&lt;li&gt;&lt;b&gt;Протокол&lt;/b&gt;:&amp;nbsp; &amp;nbsp; &amp;nbsp; &amp;nbsp; &amp;nbsp; &amp;nbsp;https&lt;/li&gt;&lt;li&gt;&lt;b&gt;Хост&lt;/b&gt;:&amp;nbsp; &amp;nbsp; &amp;nbsp; &amp;nbsp; &amp;nbsp; &amp;nbsp; &amp;nbsp; &amp;nbsp; &amp;nbsp; &amp;nbsp;github.com&lt;/li&gt;&lt;li&gt;&lt;b&gt;Путь&lt;/b&gt; к ресурсу:&amp;nbsp; kanigreg&lt;/li&gt;&lt;/ul&gt;&lt;/div&gt;&lt;div&gt;&lt;br&gt;&lt;/div&gt;" style="rounded=1;whiteSpace=wrap;html=1;align=left;arcSize=6;" parent="1" vertex="1">
          <mxGeometry width="294" height="140" as="geometry" />
        </mxCell>
        <mxCell id="tzSJRUm39LDdc5LxJkue-43" value="" style="edgeStyle=orthogonalEdgeStyle;rounded=0;orthogonalLoop=1;jettySize=auto;html=1;strokeWidth=3;curved=1;" parent="1" source="tzSJRUm39LDdc5LxJkue-40" target="tzSJRUm39LDdc5LxJkue-42" edge="1">
          <mxGeometry relative="1" as="geometry" />
        </mxCell>
        <mxCell id="tzSJRUm39LDdc5LxJkue-40" value="На основе доменного имени браузер получает &lt;b&gt;IP&lt;/b&gt; адрес машины где расположен web-server. Для этого используется &lt;b&gt;DNS&lt;/b&gt;." style="whiteSpace=wrap;html=1;rounded=1;align=left;arcSize=6;" parent="1" vertex="1">
          <mxGeometry y="251" width="285" height="60" as="geometry" />
        </mxCell>
        <mxCell id="tzSJRUm39LDdc5LxJkue-46" value="" style="edgeStyle=orthogonalEdgeStyle;curved=1;rounded=0;orthogonalLoop=1;jettySize=auto;html=1;strokeWidth=3;exitX=0.75;exitY=0;exitDx=0;exitDy=0;dashed=1;dashPattern=1 1;strokeColor=#808080;endArrow=none;endFill=0;" parent="1" source="tzSJRUm39LDdc5LxJkue-42" target="tzSJRUm39LDdc5LxJkue-45" edge="1">
          <mxGeometry relative="1" as="geometry" />
        </mxCell>
        <mxCell id="tzSJRUm39LDdc5LxJkue-42" value="Когда получен IP адресс, можно установить соединение с сервером. &lt;br&gt;&lt;b&gt;TCP&lt;/b&gt; - c подтверждением, или &lt;br&gt;&lt;b&gt;UDP&lt;/b&gt; - без подтверждения.&lt;br&gt;Важная характеристика для TCP соединения это порт: для http - 80, для https - 443." style="whiteSpace=wrap;html=1;rounded=1;align=left;arcSize=6;" parent="1" vertex="1">
          <mxGeometry y="395" width="270" height="90" as="geometry" />
        </mxCell>
        <mxCell id="tzSJRUm39LDdc5LxJkue-52" value="" style="edgeStyle=orthogonalEdgeStyle;curved=1;rounded=0;orthogonalLoop=1;jettySize=auto;html=1;strokeWidth=3;exitX=0.5;exitY=1;exitDx=0;exitDy=0;" parent="1" source="tzSJRUm39LDdc5LxJkue-42" target="tzSJRUm39LDdc5LxJkue-51" edge="1">
          <mxGeometry relative="1" as="geometry" />
        </mxCell>
        <mxCell id="tzSJRUm39LDdc5LxJkue-54" value="" style="edgeStyle=orthogonalEdgeStyle;curved=1;rounded=0;orthogonalLoop=1;jettySize=auto;html=1;strokeWidth=3;dashed=1;exitX=1;exitY=1;exitDx=0;exitDy=0;" parent="1" source="tzSJRUm39LDdc5LxJkue-42" target="tzSJRUm39LDdc5LxJkue-53" edge="1">
          <mxGeometry relative="1" as="geometry" />
        </mxCell>
        <mxCell id="tzSJRUm39LDdc5LxJkue-45" value="" style="whiteSpace=wrap;html=1;rounded=1;align=left;arcSize=6;image=data:image/jpeg,/9j/4AAQSkZJRgABAQEAYABgAAD/2wBDAAoHBwgHBgoICAgLCgoLDhgQDg0NDh0VFhEYIx8lJCIfIiEmKzcvJik0KSEiMEExNDk7Pj4+JS5ESUM8SDc9Pjv/2wBDAQoLCw4NDhwQEBw7KCIoOzs7Ozs7Ozs7Ozs7Ozs7Ozs7Ozs7Ozs7Ozs7Ozs7Ozs7Ozs7Ozs7Ozs7Ozs7Ozs7Ozv/wAARCALQA8ADASIAAhEBAxEB/8QAHwAAAQUBAQEBAQEAAAAAAAAAAAECAwQFBgcICQoL/8QAtRAAAgEDAwIEAwUFBAQAAAF9AQIDAAQRBRIhMUEGE1FhByJxFDKBkaEII0KxwRVS0fAkM2JyggkKFhcYGRolJicoKSo0NTY3ODk6Q0RFRkdISUpTVFVWV1hZWmNkZWZnaGlqc3R1dnd4eXqDhIWGh4iJipKTlJWWl5iZmqKjpKWmp6ipqrKztLW2t7i5usLDxMXGx8jJytLT1NXW19jZ2uHi4+Tl5ufo6erx8vP09fb3+Pn6/8QAHwEAAwEBAQEBAQEBAQAAAAAAAAECAwQFBgcICQoL/8QAtREAAgECBAQDBAcFBAQAAQJ3AAECAxEEBSExBhJBUQdhcRMiMoEIFEKRobHBCSMzUvAVYnLRChYkNOEl8RcYGRomJygpKjU2Nzg5OkNERUZHSElKU1RVVldYWVpjZGVmZ2hpanN0dXZ3eHl6goOEhYaHiImKkpOUlZaXmJmaoqOkpaanqKmqsrO0tba3uLm6wsPExcbHyMnK0tPU1dbX2Nna4uPk5ebn6Onq8vP09fb3+Pn6/9oADAMBAAIRAxEAPwD2aiiigAooooAKKKKACiiigAooooAKKKKACiiigAooooAKKKKACiiigAooooAKKKKACiiigAooooAKKKKACiiigAooooAKKKKACiiigAooooAKKKKACiiigAooooAKKKKACiiigAooooAKKKKACiiigAooooAKKKKACiiigAooooAKKKKACiiigAooooAKKKKACiiigAooooAKKKKACiiigAooooAKKKKACiiigAooooAKKKKACiiigAooooAKKKKACiiigAooooAKKKKACiiigAooooAKKKKACiiigAooooAKKKKACiiigAooooAKKKKACiiigAooooAKKKKACiiigAooooAKKKKACiiigAooooAKKKKACiiigAooooAKKKKACiiigAooooAKKKKACiiigAooooAKKKKACiiigAooooAKKKKACiiigAooooAKKKKACiiigAooooAKKKKACiiigAooooAKKKKACiiigAooooAKKKKACiiigAooooAKKKKACiiigAooooAKKKKACiiigAooooAKKKKACiiigAooooAKKKKACiiigAooooAKKKKACiiigAooooAKKKKACiiigAooooAKKKKACiiigAooooAKKKKACiiigAooooAKKKKACiiigAooooA4/wAKeFPDd14Q0W5ufD+lzTzafA8kklnGzOxjUkkkZJJ5zWt/whnhX/oWdI/8AYv/AImjwZ/yJGg/9g23/wDRa1tUAYv/AAhnhX/oWdI/8AYv/iaP+EM8K/8AQs6R/wCAMX/xNbVFAGL/AMIZ4V/6FnSP/AGL/wCJo/4Qzwr/ANCzpH/gDF/8TW1RQBi/8IZ4V/6FnSP/AABi/wDiaP8AhDPCv/Qs6R/4Axf/ABNbVFAGL/whnhX/AKFnSP8AwBi/+Jo/4Qzwr/0LOkf+AMX/AMTW1RQBi/8ACGeFf+hZ0j/wBi/+Jo/4Qzwr/wBCzpH/AIAxf/E1tUUAYv8AwhnhX/oWdI/8AYv/AImj/hDPCv8A0LOkf+AMX/xNbVFAGL/whnhX/oWdI/8AAGL/AOJo/wCEM8K/9CzpH/gDF/8AE1tUUAYv/CGeFf8AoWdI/wDAGL/4mj/hDPCv/Qs6R/4Axf8AxNbVFAGL/wAIZ4V/6FnSP/AGL/4mj/hDPCv/AELOkf8AgDF/8TW1RQBi/wDCGeFf+hZ0j/wBi/8AiaP+EM8K/wDQs6R/4Axf/E1tUUAYv/CGeFf+hZ0j/wAAYv8A4mj/AIQzwr/0LOkf+AMX/wATW1RQBi/8IZ4V/wChZ0j/AMAYv/iaP+EM8K/9CzpH/gDF/wDE1tUUAYv/AAhnhX/oWdI/8AYv/iaP+EM8K/8AQs6R/wCAMX/xNbVFAGL/AMIZ4V/6FnSP/AGL/wCJo/4Qzwr/ANCzpH/gDF/8TW1RQBi/8IZ4V/6FnSP/AABi/wDiaP8AhDPCv/Qs6R/4Axf/ABNbVFAGL/whnhX/AKFnSP8AwBi/+Jo/4Qzwr/0LOkf+AMX/AMTW1RQBi/8ACGeFf+hZ0j/wBi/+Jo/4Qzwr/wBCzpH/AIAxf/E1tUUAYv8AwhnhX/oWdI/8AYv/AImj/hDPCv8A0LOkf+AMX/xNbVFAGL/whnhX/oWdI/8AAGL/AOJo/wCEM8K/9CzpH/gDF/8AE1tUUAYv/CGeFf8AoWdI/wDAGL/4mj/hDPCv/Qs6R/4Axf8AxNbVFAGL/wAIZ4V/6FnSP/AGL/4mj/hDPCv/AELOkf8AgDF/8TW1RQBi/wDCGeFf+hZ0j/wBi/8AiaP+EM8K/wDQs6R/4Axf/E1tUUAYv/CGeFf+hZ0j/wAAYv8A4mj/AIQzwr/0LOkf+AMX/wATW1RQBi/8IZ4V/wChZ0j/AMAYv/iaP+EM8K/9CzpH/gDF/wDE1tUUAYv/AAhnhX/oWdI/8AYv/iaP+EM8K/8AQs6R/wCAMX/xNbVFAGL/AMIZ4V/6FnSP/AGL/wCJo/4Qzwr/ANCzpH/gDF/8TW1RQBi/8IZ4V/6FnSP/AABi/wDiaP8AhDPCv/Qs6R/4Axf/ABNbVFAGL/whnhX/AKFnSP8AwBi/+Jo/4Qzwr/0LOkf+AMX/AMTW1RQBi/8ACGeFf+hZ0j/wBi/+Jo/4Qzwr/wBCzpH/AIAxf/E1tUUAYv8AwhnhX/oWdI/8AYv/AImj/hDPCv8A0LOkf+AMX/xNbVFAGL/whnhX/oWdI/8AAGL/AOJo/wCEM8K/9CzpH/gDF/8AE1tUUAYv/CGeFf8AoWdI/wDAGL/4mj/hDPCv/Qs6R/4Axf8AxNbVFAGL/wAIZ4V/6FnSP/AGL/4mj/hDPCv/AELOkf8AgDF/8TW1RQBi/wDCGeFf+hZ0j/wBi/8AiaP+EM8K/wDQs6R/4Axf/E1tUUAYv/CGeFf+hZ0j/wAAYv8A4mj/AIQzwr/0LOkf+AMX/wATW1RQBi/8IZ4V/wChZ0j/AMAYv/iaP+EM8K/9CzpH/gDF/wDE1tUUAYv/AAhnhX/oWdI/8AYv/iaP+EM8K/8AQs6R/wCAMX/xNbVFAGL/AMIZ4V/6FnSP/AGL/wCJo/4Qzwr/ANCzpH/gDF/8TW1RQBi/8IZ4V/6FnSP/AABi/wDiaP8AhDPCv/Qs6R/4Axf/ABNbVFAGL/whnhX/AKFnSP8AwBi/+Jo/4Qzwr/0LOkf+AMX/AMTW1RQBi/8ACGeFf+hZ0j/wBi/+Jo/4Qzwr/wBCzpH/AIAxf/E1tUUAYv8AwhnhX/oWdI/8AYv/AImj/hDPCv8A0LOkf+AMX/xNbVFAGL/whnhX/oWdI/8AAGL/AOJo/wCEM8K/9CzpH/gDF/8AE1tUUAYv/CGeFf8AoWdI/wDAGL/4mj/hDPCv/Qs6R/4Axf8AxNbVFAGL/wAIZ4V/6FnSP/AGL/4mj/hDPCv/AELOkf8AgDF/8TW1RQBi/wDCGeFf+hZ0j/wBi/8AiaP+EM8K/wDQs6R/4Axf/E1tUUAYv/CGeFf+hZ0j/wAAYv8A4mj/AIQzwr/0LOkf+AMX/wATW1RQBi/8IZ4V/wChZ0j/AMAYv/iaP+EM8K/9CzpH/gDF/wDE1tUUAYv/AAhnhX/oWdI/8AYv/iaP+EM8K/8AQs6R/wCAMX/xNbVFAGL/AMIZ4V/6FnSP/AGL/wCJo/4Qzwr/ANCzpH/gDF/8TW1RQBi/8IZ4V/6FnSP/AABi/wDiaP8AhDPCv/Qs6R/4Axf/ABNbVFAGL/whnhX/AKFnSP8AwBi/+Jo/4Qzwr/0LOkf+AMX/AMTW1RQBi/8ACGeFf+hZ0j/wBi/+Jo/4Qzwr/wBCzpH/AIAxf/E1tUUAYv8AwhnhX/oWdI/8AYv/AImj/hDPCv8A0LOkf+AMX/xNbVFAGL/whnhX/oWdI/8AAGL/AOJo/wCEM8K/9CzpH/gDF/8AE1tUUAY3g4lvBOhEkknTbfJP/XNa2axfBn/IkaD/ANg23/8ARa1tUAFFFFABRRRQAUUUUAYvgz/kSNB/7Btv/wCi1rarF8Gf8iRoP/YNt/8A0WtbVABRRRQAUUUUAFFFFABRRRQAUUUUAFFFFABRRRQAUUUUAFFFFABRRRQAUUUUAFFFFABRRRQAUUUUAFFFFABRRRQAUUUUAFFFFABRRRQAUUUUAFFFFABRRRQAUUUUAFFFFABRRRQAUUUUAFFFFABRRRQAUUUUAFFFFABRRRQAUUUUAFFFFABRRRQAUUUUAFFFFABRRRQAUUUUAFFFFABRRRQAUUUUAFFFFABRRRQAUUUUAFFFFABRRRQAUUUUAFFFFABRRRQAUUUUAFFFFABRRRQAUUUUAFFFFABRRRQBi+DP+RI0H/sG2/8A6LWtqsXwZ/yJGg/9g23/APRa1tUAFFFFABRRRQAUUUUAYvgz/kSNB/7Btv8A+i1rarF8Gf8AIkaD/wBg23/9FrW1QAUUUUAFFFFABRRRQAUUUUAFFFFABSMyqpZiFUDJJPApaxfGRx4I14jg/wBm3H/otqAFPjLwsCQfEukAj/p+i/8AiqT/AITPwr/0M2kf+B0X/wAVXn/w5+HPhPXvAmnanqek+fdz+b5kn2iVd2JXUcKwHQDtXT/8Ki8Cf9AL/wAm5/8A4ugDZ/4TPwr/ANDNpH/gdF/8VR/wmfhX/oZtI/8AA6L/AOKrG/4VF4E/6AX/AJNz/wDxdH/CovAn/QC/8m5//i6ANn/hM/Cv/QzaR/4HRf8AxVH/AAmfhX/oZtI/8Dov/iqxv+FReBP+gF/5Nz//ABdH/CovAn/QC/8AJuf/AOLoA2f+Ez8K/wDQzaR/4HRf/FUf8Jn4V/6GbSP/AAOi/wDiqxv+FReBP+gF/wCTc/8A8XR/wqLwJ/0Av/Juf/4ugDZ/4TPwr/0M2kf+B0X/AMVR/wAJn4V/6GbSP/A6L/4qsb/hUXgT/oBf+Tc//wAXR/wqLwJ/0Av/ACbn/wDi6ANn/hM/Cv8A0M2kf+B0X/xVH/CZ+Ff+hm0j/wADov8A4qsb/hUXgT/oBf8Ak3P/APF0f8Ki8Cf9AL/ybn/+LoA2f+Ez8K/9DNpH/gdF/wDFUf8ACZ+Ff+hm0j/wOi/+KrG/4VF4E/6AX/k3P/8AF0f8Ki8Cf9AL/wAm5/8A4ugDZ/4TPwr/ANDNpH/gdF/8VR/wmfhX/oZtI/8AA6L/AOKrG/4VF4E/6AX/AJNz/wDxdH/CovAn/QC/8m5//i6ANn/hM/Cv/QzaR/4HRf8AxVH/AAmfhX/oZtI/8Dov/iqxv+FReBP+gF/5Nz//ABdH/CovAn/QC/8AJuf/AOLoA2f+Ez8K/wDQzaR/4HRf/FUf8Jn4V/6GbSP/AAOi/wDiqxv+FReBP+gF/wCTc/8A8XR/wqLwJ/0Av/Juf/4ugDZ/4TPwr/0M2kf+B0X/AMVR/wAJn4V/6GbSP/A6L/4qsb/hUXgT/oBf+Tc//wAXR/wqLwJ/0Av/ACbn/wDi6ANn/hM/Cv8A0M2kf+B0X/xVH/CZ+Ff+hm0j/wADov8A4qsb/hUXgT/oBf8Ak3P/APF1meJvhb4L0/wrq97a6N5dxbWM0sT/AGqY7WVCQcF8Hkd6APQre4huoEuLaaOaGQZSSNgysPUEdakrjPhF/wAkx0j/ALbf+jnrs6ACiiigAooooAKKKKACiiigAooooAKKKKACiiigAooooAKKKKACiiigAooooAKKKKACiiigAooooAKKKKACiiigApGZVUsxCqBkkngUtYvjI48Ea8Rwf7NuP/RbUAKfGXhYEg+JdIBH/T9F/wDFUn/CZ+Ff+hm0j/wOi/8Aiq8/+HPw58J694E07U9T0nz7ufzfMk+0SruxK6jhWA6Adq6f/hUXgT/oBf8Ak3P/APF0AbP/AAmfhX/oZtI/8Dov/iqP+Ez8K/8AQzaR/wCB0X/xVY3/AAqLwJ/0Av8Aybn/APi6P+FReBP+gF/5Nz//ABdAGz/wmfhX/oZtI/8AA6L/AOKo/wCEz8K/9DNpH/gdF/8AFVjf8Ki8Cf8AQC/8m5//AIuj/hUXgT/oBf8Ak3P/APF0AbP/AAmfhX/oZtI/8Dov/iqP+Ez8K/8AQzaR/wCB0X/xVY3/AAqLwJ/0Av8Aybn/APi6P+FReBP+gF/5Nz//ABdAGz/wmfhX/oZtI/8AA6L/AOKo/wCEz8K/9DNpH/gdF/8AFVjf8Ki8Cf8AQC/8m5//AIuj/hUXgT/oBf8Ak3P/APF0AbP/AAmfhX/oZtI/8Dov/iqP+Ez8K/8AQzaR/wCB0X/xVY3/AAqLwJ/0Av8Aybn/APi6P+FReBP+gF/5Nz//ABdAGz/wmfhX/oZtI/8AA6L/AOKo/wCEz8K/9DNpH/gdF/8AFVjf8Ki8Cf8AQC/8m5//AIuj/hUXgT/oBf8Ak3P/APF0AbP/AAmfhX/oZtI/8Dov/iqP+Ez8K/8AQzaR/wCB0X/xVY3/AAqLwJ/0Av8Aybn/APi6P+FReBP+gF/5Nz//ABdAGz/wmfhX/oZtI/8AA6L/AOKo/wCEz8K/9DNpH/gdF/8AFVjf8Ki8Cf8AQC/8m5//AIuj/hUXgT/oBf8Ak3P/APF0AbP/AAmfhX/oZtI/8Dov/iqP+Ez8K/8AQzaR/wCB0X/xVY3/AAqLwJ/0Av8Aybn/APi6P+FReBP+gF/5Nz//ABdAGz/wmfhX/oZtI/8AA6L/AOKo/wCEz8K/9DNpH/gdF/8AFVjf8Ki8Cf8AQC/8m5//AIuj/hUXgT/oBf8Ak3P/APF0AbP/AAmfhX/oZtI/8Dov/iqP+Ez8K/8AQzaR/wCB0X/xVY3/AAqLwJ/0Av8Aybn/APi6zPE3wt8F6f4V1e9tdG8u4trGaWJ/tUx2sqEg4L4PI70AehW9xDdQJcW00c0MgykkbBlYeoI61JXGfCL/AJJjpH/bb/0c9dnQAUUUUAFFFFABRRRQAUUUUAFFFFABRRRQBi+DP+RI0H/sG2//AKLWtqsXwZ/yJGg/9g23/wDRa1tUAFFFFABRRRQAUUUUAYvgz/kSNB/7Btv/AOi1rarF8Gf8iRoP/YNt/wD0WtbVABRRRQAUUUUAFFFFABRRRQAUUUUAFYvjP/kSNe/7Btx/6LatqsXxn/yJGvf9g24/9FtQBjfCL/kmOkf9tv8A0dJXZ1xnwi/5JjpH/bb/ANHSV2dABRRRQAUUVQ1vVrfQtFu9Vuv9VaxGRgOrY6Ae5OB+NAFm5u7ayhM11cRW8Q6vK4VR+JqnZ+I9C1GbybHWtPupT/BBdI7fkDXz1aw+JPi74tdZbnaqgyMWJ8q1jyBhV/IY6nqe5rrb74Azw2nmabr4lukGQs0Hlqx9iGJX9aAPVPEniTT/AArpLanqRkEAcIBGm5ix6DH4UeG/Emn+KtJXU9NMhgLlMSptYMOox+Nee/Ei21Cz+DGnW2qsWvongScs+47gD1Pc+9avwQ/5J+P+vuX/ANloA6XTfHHhnWNXbSdP1aGe9XP7pVYbsddpIw3Q9Ca3q8m8E+FfA1h46E+keI5L2+tjKYrUjAXgqfmx82AT0+teqXNzBZ20lzdTJBBEu55JGCqo9STQBLRXIn4qeCBcCD+34t5OMiKTb/31tx+tdVb3EN1AlxbzJNDIu5JI2DKw9QR1oAkorHi8W6DNrr6HHqcLajHu3Qc5G0ZPOMcD3rNl+JvguG9azfX7fzVOCVV2T/vsDb+tAHVUVUu9VsLHS31S4u40skQSGcHcu09CCOucjpXhkPxKvf8AhaJuJPEM/wDYP2xgBk+V5POPlx9O2aAPfqKzdE8RaR4jtpLjSL5LuKN9jlQRtOM4IIBrSoAKKKKACsXxn/yJGvf9g24/9FtW1WL4z/5EjXv+wbcf+i2oAxvhF/yTHSP+23/o6SuzrjPhF/yTHSP+23/o6SuzoAKKKKACiiigAooooAKKKKACiiigAooooAKKKKACiiigAooooAKKKKACiiigAooooAKKKKACiiigAooooAKKKKACsXxn/wAiRr3/AGDbj/0W1bVYvjP/AJEjXv8AsG3H/otqAMb4Rf8AJMdI/wC23/o6SuzrjPhF/wAkx0j/ALbf+jpK7OgAooooAKhuru2sYTPd3EVvEDgySuEUfiamr5w1+7vviH8UTpNzf/Z7Y3j21uGztiRSRkLn7xx+JOKAPfrLxFoepTeTYazYXcv9yC6R2/IGtGvHtS+AcaQiTRdclS6TBUXSfKT/ALy8r+Rr16JWSFEdtzKoBb1PrQA+iuX1H4leDtKuXt7vXYRKjbWWJHl2nuDsBrZ0jW9M16z+16VfQ3cOcFo2ztPoR1B9jQBforI1nxXoXh+5gt9W1KK1luBmNXBORnGeBwM+tVr3x34Y07Wk0a61eJL53CCJUZsMeACQCFPPcigDoKKwtM8a+G9Y1M6bp+rQz3Y3fulDAnHXGRg/hWrfX1rpllLe3s6QW8K7pJHPCigCxRWXofiTR/EkMs2j3yXaRMFcqCNpPsQKo6x4+8K6DdPa6lrMMU6ffiVWkZfqFBxQB0VFZWh+J9E8SQtLo+ow3YT76rkMv1U4I/EU7W/Emj+G4Y5tYvo7RJWKoXBO4jrgAGgDTorndV8f+FdFNut/rMMbXMayxhVaQlGGQx2g4BHriugR1kjWRGDKwBUjuDQA6iiigArF8Z/8iRr3/YNuP/RbVtVi+M/+RI17/sG3H/otqAMb4Rf8kx0j/tt/6Okrs64z4Rf8kx0j/tt/6Okrs6ACiiigAooooAKKKKACiiigAooooAKKKKAMXwZ/yJGg/wDYNt//AEWtbVYvgz/kSNB/7Btv/wCi1raoAKKKKACiiigAooooAxfBn/IkaD/2Dbf/ANFrW1WL4M/5EjQf+wbb/wDota2qACiiigAooooAKKKKACiiigAooooAKxfGf/Ika9/2Dbj/ANFtW1WL4z/5EjXv+wbcf+i2oAxvhF/yTHSP+23/AKOkrs64z4Rf8kx0j/tt/wCjpK7OgAooooAK4L40SvH8ObpVJAkniVsem4H+YFd7XPeO9AfxL4N1DS4cefJGHhz3dSGA/HGPxoA4P9n+OMaXrMox5rTxq3HOApx/M167Xzb8M/Gy+BdburfVIZRZ3WI51VfmhdScNj2ywI6/livWb/4xeC7SzM0OoveSYysMMDhm/wC+gAPxNAFX43/8k/P/AF9xf+zUfBD/AJJ+P+vuX/2Ws74n6wuv/CCz1ZIWhW7nikEbHJX73Ga0fgh/yT8f9fcv/stAHnnwq/5K23/bx/I1p/HXX7ifXLTw/HJstYIlmkGcBpGJAz7ADj6msz4Vf8lbb/t4/kan+OWmTWnjK31Noc293bqAx6F0OGX8tv50Aad9onwnTwrNaW2q2zakluTHd+c+95QODjpgntj/ABqf4BaxcONU0aRy0EYW4iU/wknDY+vy1paZYfB3UtOivNul2xdAzQ3F40boe4IZgePaul8DxeCPOv38IRw7oysdzJEHIOckAFuo4PSgDxXxFp9zq3xd1DTLS4+zy3l+0HmZIADcHOO2CeO9dP4++E2k+GPBb6tp91dSXFoyecZmBEgZgvAA45YfhWV/zcB/3F/616n8Xf8AkmOr/wDbH/0dHQBzfwmgj8U/DG/0HU2ke1W5aFdrYKoQrgA+zEn8a84g8MafJ8VD4ZZpvsIv2t8hxv2gnvjrx6V6X8Av+RV1H/r+/wDZFrhNRvIvD/xymvb47IYdU8yRsH5UY5z+AbNAHuPhTwfpXg6ymtdL84pPJ5jtM4ZicY7AcVu1m6N4i0jxDHNJpF9HdpA4SRkBwCRnuOeK0qACiiigArF8Z/8AIka9/wBg24/9FtW1WL4z/wCRI17/ALBtx/6LagDG+EX/ACTHSP8Att/6Okrs64z4Rf8AJMdI/wC23/o6SuzoAKKKKACiiigAooooAKKKKACiiigAooooAKKKKACiiigAooooAKKKKACiiigAooooAKKKKACiiigAooooAKKKKACsXxn/AMiRr3/YNuP/AEW1bVYvjP8A5EjXv+wbcf8AotqAMb4Rf8kx0j/tt/6Okrs64z4Rf8kx0j/tt/6Okrs6ACiiigArw34j/CzV4tcudf8ADsL3UNxIZ5IYT+9hkJySo6sCeRjkenFe5VwukfGHwlqSst1dvpsysQY7lDg+4YZH54oA858LfGXXdDuEsfEKPqFqjbHZxtuIvXn+LHo3PuK7j4teKza+ALeTSbgFdYZUWZDg+UVLEj68D6E15/8AGHX/AA74g1qyk0JkuJ442FzcxpgSZxsXOPmIwefcD6bXjjw3qNv8GfD7Twv5+mkNcKRzEj56j2JUUAU/Ael/DUeGkn8TXttLqNwWLxyTOvkrkgABSOcDOfeqHgK/h8P/ABcWz0e8+0aZdTvbK+ciSM5KfiDjn6+ta/w8h+Gup+HIotfisYNUhLLM11cNEJBklWBLAdMD8Peuy0Kz+F8Pii1t9CSyl1Rdzwm3keULgZJ3ZK9M96AOJ+PpK+JNKI4ItDj/AL7NbPhD4O2txY2Gva1qN22oyul3tjddoyQwDEglie5yOv41jfH7/kY9L/69D/6Ga9m8P/8AIuaZ/wBekX/oAoA8C8QRnwF8Y/tiApbrdrdLjvFJ98D83X8K774562LXwla6ZE43alMGOD1jTDH/AMeKVn/HzQ/MsdO12NPmhc20xA/hb5l/AEN/31XnlzqV74/1nw7pJ3BooIbHPXofmf8ALBP0oA9A0d5/AvwKm1OD93f6kfMRu6+YQqkfRBuHua5n4cWHgSayur7xhfQNdPKVigmlddq4BLnb1JJI59K9Q+KWhtd/DW6tLCHP2FY5I417ImM4+i5P4V5p8MV8A3thcWfiqG1jvll3xTXMzRq8ZA4zkAEEHr60AZzXml+FfinbXXhW9E2nefHt2sWAR8B0JPJ6nr7eldv+0B/yCtG/67yf+gitSDT/AIR2+s2VtZrp897LMq2628zzDfnjJUlRz61l/tAf8grRv+u8n/oIoAyvA/wkg8VeH01vXdRu0a6H+jpAy5CL8oLFgfTAAxgAfh7dBCtvbxwpkrGgUZ64AxXM/DL/AJJzov8A1wP/AKEa6qgAooooAKxfGf8AyJGvf9g24/8ARbVtVi+M/wDkSNe/7Btx/wCi2oAxvhF/yTHSP+23/o6SuzrjPhF/yTHSP+23/o6SuzoAKKKKACiiigAooooAKKKKACiiigAooooAxfBn/IkaD/2Dbf8A9FrW1WL4M/5EjQf+wbb/APota2qACiiigAooooAKKKKAMXwZ/wAiRoP/AGDbf/0WtbVYvgz/AJEjQf8AsG2//ota2qACiiigAooooAKKKKACiiigAooooAKxfGf/ACJGvf8AYNuP/RbVtVi+M/8AkSNe/wCwbcf+i2oAxvhF/wAkx0j/ALbf+jpK7OvOfhb4m0DT/h1pdre65p1rcR+dvimu40dczORkE5HBB/Gus/4TPwr/ANDNpH/gdF/8VQBtUVi/8Jn4V/6GbSP/AAOi/wDiqP8AhM/Cv/QzaR/4HRf/ABVAG1RWL/wmfhX/AKGbSP8AwOi/+Ko/4TPwr/0M2kf+B0X/AMVQBQ8R/Dfwz4ouDdX1kY7pvvT277Hb69j9SM1jWHwS8H2UwklW9vQDkJcTjb/44FrqP+Ez8K/9DNpH/gdF/wDFUf8ACZ+Ff+hm0j/wOi/+KoANd8KaT4g0FdEu4WiskKmNLc7Nm3gY7Y9qk8N+G9P8K6SumaaJBAHL5lfcxJ6nP4VH/wAJn4V/6GbSP/A6L/4qj/hM/Cv/AEM2kf8AgdF/8VQBnaH8N/D/AIf8QPrdityLpt2A8u5V3dcDH8629a0PTPEOntY6rZx3UDcgOOVPqp6g+4qr/wAJn4V/6GbSP/A6L/4qj/hM/Cv/AEM2kf8AgdF/8VQByEnwK8JvLvW41ONf+eazpj9UJ/Wuw8NeE9G8JWklto9sYRKQ0rs5ZnI6ZJ/pSf8ACZ+Ff+hm0j/wOi/+Ko/4TPwr/wBDNpH/AIHRf/FUAZ3/AArfw/8A8JZ/wk225+3ed52PN+Tf64xn9a29d0Sz8R6NcaTqCuba4C79jbW4YMMH6gVV/wCEz8K/9DNpH/gdF/8AFUf8Jn4V/wChm0j/AMDov/iqAE8LeEtL8H6fJZaWJvLlk8xzM+4lsAeg7AVneKvht4d8XXQvL+KeG627TPbSBWYDpnIIOPpWl/wmfhX/AKGbSP8AwOi/+Ko/4TPwr/0M2kf+B0X/AMVQAzwp4Q0vwdp8llpYmKyvvkkmfczHGOwA/IVu1i/8Jn4V/wChm0j/AMDov/iqP+Ez8K/9DNpH/gdF/wDFUAbVFYv/AAmfhX/oZtI/8Dov/iqP+Ez8K/8AQzaR/wCB0X/xVAG1WL4z/wCRI17/ALBtx/6Laj/hM/Cv/QzaR/4HRf8AxVZPizxZ4bufB2tQQeIdLlll0+dI40vY2Z2MbAAAHkk9qAGfCL/kmOkf9tv/AEdJXZ1xnwi/5JjpH/bb/wBHSV2dABRRRQAUUUUAFFFFABRRRQAUUUUAFFFFABRRRQAUUUUAFFFFABRRRQAUUUUAFFFFABRRRQAUUUUAFFFFABRRRQAVi+M/+RI17/sG3H/otq2qxfGf/Ika9/2Dbj/0W1AGN8Iv+SY6R/22/wDR0ldnXnPwt8TaBp/w60u1vdc061uI/O3xTXcaOuZnIyCcjgg/jXWf8Jn4V/6GbSP/AAOi/wDiqANqisX/AITPwr/0M2kf+B0X/wAVR/wmfhX/AKGbSP8AwOi/+KoA2q4XWfg94R1m6e58i4sZJDuf7HIFUn/dYED8AK6D/hM/Cv8A0M2kf+B0X/xVH/CZ+Ff+hm0j/wADov8A4qgDG0D4U+FPD10l3DaSXdxGQUku3D7CO4AAGffHHauvnghuYHguIklikUq8bqGVgeoIPUVk/wDCZ+Ff+hm0j/wOi/8AiqP+Ez8K/wDQzaR/4HRf/FUAcvf/AAS8IXs7Sxi9stzbtlvMNo+gZWwK1vDHw18N+E7sXthBNJdqpVZ7iXcwB4OAMDn6Vpf8Jn4V/wChm0j/AMDov/iqP+Ez8K/9DNpH/gdF/wDFUAUvFXw/0PxjdW9zqguBJbrsUwybcrnODwa6K2t47S1htoQRHCixoCc4AGBWV/wmfhX/AKGbSP8AwOi/+Ko/4TPwr/0M2kf+B0X/AMVQBa1zRLHxFpE+l6lGZLacDcA2CMEEEHscgVz3hz4W+GvDGrJqlilzJcxAiNp5dwTIwSAAOcEj8a1/+Ez8K/8AQzaR/wCB0X/xVH/CZ+Ff+hm0j/wOi/8AiqANkgEEEZB6g1wmr/Bvwjq11JcLBcWDyHLCzkCLn2UggfgK6L/hM/Cv/QzaR/4HRf8AxVH/AAmfhX/oZtI/8Dov/iqAMTw/8JvC3h2/hv4Irm6uYG3xSXM2djdjhQB+YrW8V+DdJ8ZWsFvqomC27l42hfaQTwexqX/hM/Cv/QzaR/4HRf8AxVH/AAmfhX/oZtI/8Dov/iqALuj6Ta6HpNvpdkrLb2ybYw7bjjOeT+NXaxf+Ez8K/wDQzaR/4HRf/FUf8Jn4V/6GbSP/AAOi/wDiqANqisX/AITPwr/0M2kf+B0X/wAVR/wmfhX/AKGbSP8AwOi/+KoA2qxfGf8AyJGvf9g24/8ARbUf8Jn4V/6GbSP/AAOi/wDiqyfFnizw3c+Dtagg8Q6XLLLp86RxpexszsY2AAAPJJ7UAM+EX/JMdI/7bf8Ao6SuzrjPhF/yTHSP+23/AKOkrs6ACiiigAooooAKKKKACiiigAooooAKKKKAMXwZ/wAiRoP/AGDbf/0WtbVYvgz/AJEjQf8AsG2//ota2qACiiigAooooAKKKKAMXwZ/yJGg/wDYNt//AEWtbVYvgz/kSNB/7Btv/wCi1raoAKKKKACiiigAooooAKKKKACiiigAqK5toby1ltbiMSwzIY5EboykYIP4GpaKAOM/4VF4E/6AX/k3P/8AF0f8Ki8Cf9AL/wAm5/8A4uuzooA4z/hUXgT/AKAX/k3P/wDF0f8ACovAn/QC/wDJuf8A+Lrs6KAOM/4VF4E/6AX/AJNz/wDxdH/CovAn/QC/8m5//i67OigDjP8AhUXgT/oBf+Tc/wD8XR/wqLwJ/wBAL/ybn/8Ai67OigDjP+FReBP+gF/5Nz//ABdH/CovAn/QC/8AJuf/AOLrs6KAOM/4VF4E/wCgF/5Nz/8AxdcL8W/Avhrwx4Vtr3RtN+y3El8kTP58j5Uo5IwzEdVH5V7bXmXx6/5Eiz/7CSf+i5aAOf8AhJ4F8NeJ/Ctze6zpv2q4jvniV/PkTChEIGFYDqx/Ou6/4VF4E/6AX/k3P/8AF1i/AX/kSLz/ALCT/wDouKvTaAOM/wCFReBP+gF/5Nz/APxdH/CovAn/AEAv/Juf/wCLrs6KAOM/4VF4E/6AX/k3P/8AF0f8Ki8Cf9AL/wAm5/8A4uuzooA4z/hUXgT/AKAX/k3P/wDF0f8ACovAn/QC/wDJuf8A+Lrs6KAOM/4VF4E/6AX/AJNz/wDxdH/CovAn/QC/8m5//i67OigDjP8AhUXgT/oBf+Tc/wD8XR/wqLwJ/wBAL/ybn/8Ai67OigCnpWlWOiabDpum24t7SAERxgk4ySTySSeSTzVyiigAooooAKKKKACiiigAooooAKKKKACiiigAooooAKKKKACiiigAooooAKKKKACiiigAooooAKKKKACiiigAooooAKiubaG8tZbW4jEsMyGORG6MpGCD+BqWigDjP+FReBP+gF/5Nz//ABdH/CovAn/QC/8AJuf/AOLrs6KAOM/4VF4E/wCgF/5Nz/8AxdH/AAqLwJ/0Av8Aybn/APi67OigDjP+FReBP+gF/wCTc/8A8XR/wqLwJ/0Av/Juf/4uuzooA4z/AIVF4E/6AX/k3P8A/F0f8Ki8Cf8AQC/8m5//AIuuzooA4z/hUXgT/oBf+Tc//wAXR/wqLwJ/0Av/ACbn/wDi67OigDjP+FReBP8AoBf+Tc//AMXXC/FvwL4a8MeFba90bTfstxJfJEz+fI+VKOSMMxHVR+Ve215l8ev+RIs/+wkn/ouWgDn/AISeBfDXifwrc3us6b9quI754lfz5EwoRCBhWA6sfzruv+FReBP+gF/5Nz//ABdYvwF/5Ei8/wCwk/8A6Lir02gDjP8AhUXgT/oBf+Tc/wD8XR/wqLwJ/wBAL/ybn/8Ai67OigDjP+FReBP+gF/5Nz//ABdH/CovAn/QC/8AJuf/AOLrs6KAOM/4VF4E/wCgF/5Nz/8AxdH/AAqLwJ/0Av8Aybn/APi67OigDjP+FReBP+gF/wCTc/8A8XR/wqLwJ/0Av/Juf/4uuzooA4z/AIVF4E/6AX/k3P8A/F0f8Ki8Cf8AQC/8m5//AIuuzooAp6VpVjommw6bptuLe0gBEcYJOMkk8kknkk81coooAKKKKACiiigAooooAKKKKACiiigAooooAxfBn/IkaD/2Dbf/ANFrW1WL4M/5EjQf+wbb/wDota2qACiiigAooooAKKKKAMXwZ/yJGg/9g23/APRa1tVi+DP+RI0H/sG2/wD6LWtqgAooooAKKKKACiiigAooooAKKK5q78c6bbX09pDZ6je/ZW23EtpbGSOE99xz2qXJR3NKdKdV2grnS0UyKVJ4UmjO5JFDKcYyDyKfVGYUUVW1C7+wabc3mzzPs8TSbM43YBOM9ulA0m3ZFmis/QtU/trRbXUvJ8n7Qm7y927bz64GfyrQpJ3Vxyi4ScZboKKx5/EUUevPpUcJl+z2zXN1KGx5Q/hXGOSfqOKz9L8dW+ryQC10PWjDO4Rbg2g8oc4yWDHgd6nnjexssNVceZR0OoorIt/Ellc6jqdisc6yaWoaZmUbWBBPy889O+Ki8OeLdN8TwzvZLPG1uRvjnUK2COCME8dafNG9rkuhVUXJx0Vvx2NyiuWuPHVr/wAI7BrNlZTXC3F0LaOF2COzZI4xn0rqKFJPYVSjOn8atuvu3FrzL49f8iRZ/wDYST/0XLXpteZfHr/kSLP/ALCSf+i5aoyD4C/8iRef9hJ//RcVem15l8Bf+RIvP+wk/wD6Lir02gAooooAKKKKACiiigAooooAKKKKACiiigAooooAKKKKACiiigAooooAKKKKACiiigAooooAKKKKACiiigAooooAKKKKACiiigAooooAKKKKACiiigAooooAKKKKACiiigAooooAKKKKACiiigAooooAK8y+PX/IkWf/AGEk/wDRctem15l8ev8AkSLP/sJJ/wCi5aAD4C/8iRef9hJ//RcVem15l8Bf+RIvP+wk/wD6Lir02gAooooAKKKKACiiigAooooAKKKKACiiigAooooAKKKKACiiigAooooAKKKKACiiigDF8Gf8iRoP/YNt/wD0WtbVYvgz/kSNB/7Btv8A+i1raoAKKKKACiiigAooooAxfBn/ACJGg/8AYNt//Ra1tVi+DP8AkSNB/wCwbb/+i1raoAKKKKACiiigAooooAKKKKACvP8AV7C/8Lm/8SeG9Wt3s5JTLdWc2GRmzztI75PTg+56V6BWBN4G8M3F+b6XSYmmZt7fM20n3XO0/lWc4uS0OzC1oUpPn2e6snf72vv6HHeIdTuvEWuaNbNpj3lpc2C3I077YLcSO2erd8Y4HX9ajltdTsPA/iSzvLb7JbRtE1tbG7WdoAWGVyCSBwOuK9B1bw7pGuQxw6jYxzpF/q+qlB6AqQQPao4vCmhw6RLpMWnolnPjzUVmBfByMtncfzrN0pNt3O2OPpRhGKjazWno73Wtr/L5nF/2XDomq+EtQs5bj7VfsEupJJmcygqvBz9arLY2euReK9W1a5kW/s5ZI4SJynkoAQoAzjB5XB6/jXok2h6bcGxMttuOnEG1+dh5ZAAHfnoOuaq3fg/w9f6i+oXWlwy3DjDMScN7lc4J98ZodJ9P60FHHw3le/fr8V7b7W0OJk0q81TwZ4cNuiX0FvC0k+mm48ozrn7wOe39feu08G3dne+F7SawSdIPmVUncuyYY5Xd3A6D2xS3Xg7w/e2FrY3GnLJb2gIgXzHBQHqNwOT+JrUsrK2060jtLOFYYIhhEUcCqhBxlcwxOKhVpcqve7f3t+er17L1ZQvdJsbZdU1OG3C3d1bMs0m4ncAvHGcD8K5b4d/8JJ/YOn+V/Zf9lb3zv8zz8bjn/Zzmu8liSaJ4pBuR1KsM9QetV9N0yz0ixjsbCHybePO1NxbGTk8kk9TVOHvJoyjibUZQlq21v2Sa/wCGON0v/ka/Gv8A1xX/ANAaqGiKdF0TQPEUfywSRmzv/TYznY5/3W7+9d5Foemw3d7dR222a/AW5bex3gDHTOBwe2KWLRdOh0b+x0tR9h2GPyWYsNp6jJOe/rUezf5/mdDxsNrOz5b+ijZ/8A5f4daZa3XhawuLmESTWdzM0JLHCMTgnGcE/Xp2rt6p6XpVjotitlp8Hk26EkJuLck5PJJNXK0hHlikceJre2qymtm3YK8y+PX/ACJFn/2Ek/8ARctem15l8ev+RIs/+wkn/ouWrOcZ8CZoofBt3FLIkcjai7BGYAkeXHzj0r1CvFfhX4Q0vxZ4VuLzUzP50V40KtE4XChEIGMerGuv/wCFVWUH/HjrepW2Onzg4/ICsuap2/E7lSwjX8Rr1j/kzu6K4T/hBfElt/x5+NrwgdElDED/AMfP8qP7F+I9r/x7+I7O4UdpUGT+aH+dHPLrFh9VpP4a0fndfod3RXCfafida/8ALlpt5j/aAz/48tH/AAlXje2/4+vB/m/9cHP9N1HtV1T+4PqM38Mov/t5fqd3RXCf8LIvYP8Aj+8I6lbevBP81FPi+LOgFtk9tf27DqHiU4/Js/pR7WHcP7PxXSF/Sz/I7iiuVg+JXhSbGdSaIntJA4/UDFaEPjHw3P8Ac1uyH+/KE/niqU4vqYywtePxQf3M2qKqw6np9z/qL62l/wByVW/katVZg01uFFFFAgooooAKKKKACiiigAooooAKKKKACiiigArnfH9/NpngTV7y3meGZLchJI2KspYhQQR0PNdFXK/EvTNS1nwLfadpVs1zcztGBGrAEgSKx6kelAGD8PLZ7oaZfnx9c6jO1ustzpj3SzYLJyDyWGCc8+mKg0TxrrL+A/FWvT3SzvZXksdnvjXCD5do4Az98da6/Q/DGk6BYQXVrpFrBfxWipJJDCA7kKMjI65I/GvMIrC/0z4AajBcWdxDdXd6C0ckTK/+sQdCM9EoA6jwl8RNQ1Dwlrtzq0cI1XRoXnKBdqyJsLIcZ7kY47Y9a7DwrqtxrnhfT9Uu444pruESOkedoz6Z5ryn4o6Zc+FJ4NWsoyLfVNNOm3oHA3BQFJ+oA/74PrXq3hOD7L4Q0aDGDHYQqfrsGaANeiiigAooooAKKKKACiiigAooooAKKKKACiiigAooooAKKKKACiiigAooooAKKKKACiiigArzL49f8iRZ/wDYST/0XLXpteZfHr/kSLP/ALCSf+i5aAD4C/8AIkXn/YSf/wBFxV6bXmXwF/5Ei8/7CT/+i4q9NoAKKKKACiiigAooooAKKKKACiiigAooooAKKKKACiiigAooooAKKKKACiiigAooooAxfBn/ACJGg/8AYNt//Ra1tVi+DP8AkSNB/wCwbb/+i1raoAKKKKACiiigAooooAxfBn/IkaD/ANg23/8ARa1tVi+DP+RI0H/sG2//AKLWtqgAooooAKKKKACiiigAooooAKKKKAKGt6za6Dpcuo3m8xRkDbGAWYk4AAJHNXIZPNhSQo0e9Q2xxhlz2PvXH+P2Mt74csW/1VxqSF/fBA/9mNM8Y6/qmma7a2q6h/ZGnSRbjem088PJk/IfTgfWsnUs3fod8MJ7SEOXeV38l6Xfc7aiuA8SeMbqyvdO0wavbacJbVZ7jUEtzOpJHARcHgkE5PYj8YLP4gXaeGNYuGnjv7iwkRILoQmNZg5wrFeMEYPHFHto3sNZdXcFNdbd+rt2t+N/I9Gorgzf+KtJ1bQLXUNXhu4tRl/ebbdUZeBlOBgjkcjB611eu3dzZaVLPaXFhbzKVxJfuVhHPcj9PeqU00/IwqYaUJRV0+ba1+9uxo0Vx2l+INaudTt4LjWPCc0TvhktLl2lYeignk10HiBdQbRLo6Vc/Z7xE3xOVUgkc4O4Ec9KFNNXQp4eUJqEmtTRrN0bXLXXI7hrdJY2tZ2gljlADKw69CeK5jwl4q1Pxbq0RjkFtZ2Vspu02qTPK3HHcLwTxU3h3Nt8RvEtqp/dyLFNjPRiBn/0I1KqXs1sbywjpqcZ/FFJ/jb9bnZ0UUVqcAV5l8ev+RIs/wDsJJ/6Llr02vMvj1/yJFn/ANhJP/RctAB8Bf8AkSLz/sJP/wCi4q9NrzL4C/8AIkXn/YSf/wBFxV6bQAUUUUAFFFFABTJIYpl2yxpIvoygin0UBsZs/h3Q7nPnaPYyE92t0z+eKz5vAPhW4zv0eEZ/uMyf+gkV0VFS4Re6No4itH4ZtfNnGzfCzwxL9yG5h/3Jyf55qt/wqqyg/wCPHW9StsdPnBx+QFd3RU+yh2N1mGKX2389fzOE/wCEF8SW3/Hn42vCB0SUMQP/AB8/yo/sX4j2v/Hv4js7hR2lQZP5of513dFL2Uel/vH9fqv4lF+sV/kcJ9p+J1r/AMuWm3mP9oDP/jy0f8JV43tv+Prwf5v/AFwc/wBN1d3RR7N9JMPrcH8VKP4r8mcJ/wALIvYP+P7wjqVt68E/zUU+L4s6AW2z21/Aw674lOPybP6V3FMlhimXbLEkg9GUGjln/N+Ae2wr3pW9JP8AVM5iD4leFJsZ1Joie0kDj9QMVoQ+MfDc/wBzW7If78oT+eKsT+HNDuc+do9i5Pc26Z/PFZ83gHwrPnfo8Qz/AHHZP/QSKP3nkF8E+kl9z/yNiHVNPuf9RfW0v+5MrfyNWq42b4V+GJfuRXMP+5OT/PNVf+FVWUH/AB4a3qVt6fODj8gKOap2/EPZYR7VGvWP+TO8org/+EE8SW3/AB5+NrwgdFlDED/x8/yo/sX4j2v/AB7+I7OdR2lQZP5of50c8usWH1Wk/hrR+d1+h3lFcH9p+J1r/wAuWm3mP9pRn/x5aP8AhK/G9t/x9eD/ADf+uDH+m6j2q6p/cH1Gb+GUX/28v1O8org/+Fk3sH/H/wCEdStvXgnH5qKfF8WdALbZ7a/gYdd8SnH5Nn9KPaw7h/Z+K6Qv6Wf5Hc0VysHxK8KTYzqLRE9pIHH6gYrQh8Y+G58bNbsh/vyhP/QsVSnB9TGWFrx+KD+5mvLFHNGY5Y1kQ9VZcg/hTulVodU0+5/1F9bS/wC5MrfyNWqu5g01uFFFFAgooooAKKKKACiiigAooooAKKKKACiiigAooooAKKKKACiiigAooooAKKKKACiiigArzL49f8iRZ/8AYST/ANFy16bXmXx6/wCRIs/+wkn/AKLloAPgL/yJF5/2En/9FxV6bXmXwF/5Ei8/7CT/APouKvTaACiiigAooooAKKKKACiiigAooooAKKKKACiiigAooooAKKKKACiiigAooooAKKKKAMXwZ/yJGg/9g23/APRa1tVi+DP+RI0H/sG2/wD6LWtqgAooooAKKKKACiiigDF8Gf8AIkaD/wBg23/9FrW1WL4M/wCRI0H/ALBtv/6LWtqgAooooAKKKKACiiigAooooAKKKKAOQ+IsEiaZY6xCpZtLvEnYDrszz+uKua3oV74ij32WvyWlldwBJYPIWVZFPORk/KSD1HtXR0VDgm3fqdUcTKMIqO8b66Pfyfmcvd+ClB0+fSNTm028sIBbpOEEgdPRlOAe5/H6VO/haS+0O807WNXuNQe7wWmKqgjI5GxBwOevrXQ0UckRfWq2mu3Wyv3333PONQ0e+0nxN4VS+1mbUmE7RpvjEaooAxgDOT6kkk8V6DdWltewNBd28VxC2MxyoHU/gamoojBRuFbEyq8t91/nfpsZ0Hh/RbaZJ7fR7CGVDlXjtkVlPqCBxSa/pk2s6NcadBefYzcDa8oj3nb3GMjqOK0qKrlVrGSqzUlO+q+ZzNl4Mt9J1211PS7k2scduILi38vKzgDAJORg9Dnnp9c0/BanUfEPiDXxzDcXAggb+8qcZHt0rsqKjkSasbvFTlGSlq2kr+V7/MKKKK0OQK8y+PX/ACJFn/2Ek/8ARctem15l8ev+RIs/+wkn/ouWgA+Av/IkXn/YSf8A9FxV6bXmXwF/5Ei8/wCwk/8A6Lir02gAooooAKKKKACiiigAooooAKKKKACiiigAooooAKKKKACiiigAooooAKKKKACiiigApksMUy7ZYkkHoyg0+igNjNn8OaHc587R7Fye5t0z+eKz5vAPhWfO/R4hn+47J/6CRXRUVLhF7o2jiK0fhm182cbN8K/DEv3IrmH/AHJyf55qr/wqqyg/48Nb1K29PnBx+QFd5RU+yh2N1mGKX2389fzOD/4QTxJbf8efja8IHRZQxA/8fP8AKj+xfiPa/wDHv4js51HaVBk/mh/nXeUUvZR6X+8f1+q/iUX6xX+Rwf2n4nWv/Ljpt5j/AGlGf/Hlo/4Svxvbf8fXg/zf+uDH+m6u8oo9m+kmH1uD+KlH8V+TOD/4WTeQf8f/AIR1K2x14Jx+ajtT4vi1oDNtntr+Bh13RKcfk2f0ruajlhinXbNEkg9HUGjln/N+Ae2wr3pW9JP9UzmYPiV4UmxnUWiJ7SQOP1AxWhD4x8Nz42a3ZD/flCf+hYqxP4c0O5z52j2Lk9zbpn88VnzeAPCs/wB/R4h/uO6fyIo/eeQXwT6SX3P/ACNiHVNPuf8AUX1tL/uTK38jVquNm+FfhiX7kVzD/uTk/wA81V/4VVZwf8eGt6lbenzg4/IDvRzVO34j9lhHtUa9Y/5M7yiuD/4QTxJbf8efja8IHRZQ+B/4+f5Uf2L8R7X/AFHiKznUdpUGT+aH+dHPLrFi+q0n8NaPzuv0O8org/tPxOtf+XHTbzH+0oz/AOPLR/wlfje2/wCPrwf5v/XBj/TdR7VdU/uD6jN/DKL/AO3l+p3lFcH/AMLJvIP+P/wjqVtjrwTj81HanxfFrQGbbPbX8DDruiU4/Js/pR7aHcP7OxXSF/Sz/I7miuVg+JXhSbGdRaIntJA4/UDFaEPjHw3PjZrdkP8AflCf+hYqlOD6mMsLXj8UH9zNqiqsOqafc/6i+tpf9yZW/katVdzBprcKKKKBBRRRQAUUUUAFeZfHr/kSLP8A7CSf+i5a9NrzL49f8iRZ/wDYST/0XLQAfAX/AJEi8/7CT/8AouKvTa8y+Av/ACJF5/2En/8ARcVem0AFRzzLb28k7glY0LkDrgDNSVV1T/kFXn/XB/8A0E0nsVFXkkczF8StKeCO6k03VoLN22i7ktR5QOcfeDH9K65HWWNZEYMjAFWHQg143DJq4+H1hBetbx+Hp7jZLNAjNOg8wn5gTjG4dR7fQ7ni3zbjxTpmhRWLajp6WQeKyW8Fusx5AJbvgAYHX9a541Xa78j2a2ApufLB21l1vovW2vlc9Kory4Sa74f8H+IYvJaxjjeP7NCLtZ3tlc4YblORx0zjrmty00jTPDnh+bVtHmYX8mmvLzOW887Q28qTyQfT1rRVL9DknglFfFe7sra9E9XfTfzO1rLt9Vu5vENzpj6VPFbQxB0vWJ2Sk4+Uce579q8usLDVpdLs9a0/SHS98wSPq8mrofN55DIxGM9MdfXNdHNpw1fx14m098Az6aij2bC4P54qPat20N3gYU3JSknZP5WaXR+fX7j0KivKtN1BvEyeGPD7E77KRnvU/uiLhc/UcVBPBfeJNd1wzaLJqs9vO0ULf2ksH2RQSF2oevTOehx9afttNET/AGa02pytb072W7S133+89crK1zXE0f7JEsP2i6vZ1hgh3bc5PJJwcADnpXF6hpmt6t4a0P7X5Wovaq7XVh9tANyoOA29TgkDqc9T6nFdD4YtNE1vRNK1KG1mP2Jn+zCeVmaE7jkZz8wHQZzwBVc7k7LQyeGp0o+0m+ZXadvnbrfW3bbZ3FufHNrDql1p0Gj6vey2jBZTaWwkUE/8Cz+Y7Vfk8S2sOo6XYS211HPqcZeJWQDy8DJD85B/OuQ0v/hIP+E28S/2F/ZufOTzft3mehxt2fj1rR17zP8AhYXhXztvm7Jd+zO3O3nGe1Qpytfz/U3lhqSmoJfZb31vy3/M17fxjplx4mk8PhZ0ukYqHdQI3YDJAOc5x7VNJ4ns0vNVsxHL5ulQedMWwEYFdwAOf6VyB0ubUNR8UT2XF/YX0dzakdSyqcr+IyPyqXw21j4p8Ua9JNH5lpfWtszIHI/hGVJBB4IIP0oVSV7f11HLCUUnPWySv6vl/NN/cdloOqNrWiWupPbG2Nwm7yi27Aycc4Gcjnp3rRpqIsaKiKFVRhVAwAPSnVur21PJm05NxVkFFFFMkKKKKACiiigDF8Gf8iRoP/YNt/8A0WtbVYvgz/kSNB/7Btv/AOi1raoAKKKKACiiigAooooAxfBn/IkaD/2Dbf8A9FrW1WL4M/5EjQf+wbb/APota2qACiiigAooooAKKKKACiiigAooooAKKKKACiiigAooooAKKKKACiiigAooooAK8y+PX/IkWf8A2Ek/9Fy16bXmXx6/5Eiz/wCwkn/ouWgA+Av/ACJF5/2En/8ARcVem15l8Bf+RIvP+wk//ouKvTaACiiigAooooAKKKKACiiigAooooAKKKKACiiigAooooAKKKKACiiigAooooAKKKKACiiigAooooAKKKKACiiigAooooAKKKKACiiigAooooAKKKKACiiigAqOWGKdds0SSD0dQakooC9jNn8OaHc587R7Fye5t0z+eKz5vAHhWf7+jxD/AHHdP5EV0VFS4Re6No4itH4ZtfNnGzfCvwxL9yK5h/3Jyf55qr/wqqzg/wCPDW9StvT5wcfkB3rvKKn2UOxuswxS+2/nr+Zwf/CCeJbb/jz8bXhA6LKHwP8Ax8/yo/sX4kWv+o8RWdwo7SoMn80P867yil7KPS/3lfX6r+JRfrFf5HB/afida/8ALjpt5/wJRn/x5aP+Es8b23/H14PMv/XBj/TdXeUUezfSTD63B/FSj+K/JnB/8LKvIP8Aj/8ACWpW2OvBOPzUdqfF8WtAZts1tfwMOu6JSB+TZ/Su5qOWCGdds0SSD0dQaOWf834B7bCvelb0k/1TPN/E/jTTtWht7nQ/Ek1heWpLLA8Tqk2ccNwRnjvxzXI/EDxt/wAJZ4HtrOa2Md/b3qSybBlHQI4LD05YcV6B4t8NanqV6llo2iaTDayJmW+khj3q2TkDjI+oB69RXC/EXwVD4O8HW95Heyz3s14kLuAFUKUckAdeqjnNZL2vPod0ngfqqUr36bNr1sl9z1On+Av/ACJF5/2En/8ARcVem15l8Bf+RIvf+wk//ouKvTa6jwgpksSTRPFINyOpVhnqD1p9FAGYvhzSU0M6ILMf2eQR5Jdj33dSc9eetR3vhXQ9QsLexu7BZoLVQkIZ23IPQNndjgd616Knlj2NVWqp3Une99+vf1M2x8O6PpunyafaafCltKMSRkbvM/3ick/jUOk+FNC0SeSfTtPSGSRSrMWZzg9R8xOB9Ks63rNroOly6jebzFGQNsYBZiTgAAkc1chk82FJCjR71DbHGGXPY+9Fo3tbYp1K3K5OTtLz3/zMOLwN4Yhvhex6RCJg24fMxUH/AHM7f0rSi0iwg1afVY4Nt5cIEkl3sdyjGBjOB0HartFCjFbImVerL4pN9N+hl2PhvSNN1O41Kzs1iu7nPmyB2OcnJ4JwOfSoNT8HeHtYvPtl9pkcs56uHZC312kZ/Gtuijlja1hqvVUuZSd+92Y+oeE9C1S1t7W702JobUEQqhMewHqBtI4rRsrK2060jtLOFYYIhhEUcCp6Kaik72JlVnKPK5OxStNIsLG+u722g8u4vGDTvvY7yOnBOB17UXOkWF3qVrqM8G+6tM+TJvYbM9eAcH8au1m6Nrlrrkdw1uksbWs7QSxygBlYdehPFL3dhp1Xeab00v8Ah/wCe00uysbq6uraHy5rxw87bid5HQ4J4/CoNO8P6VpN5c3dhZrBNdHMzKzENyT0JwOT2xWlRTsifaT11eu4UUUUyAooooAKKKKACiiigDF8Gf8AIkaD/wBg23/9FrW1WL4M/wCRI0H/ALBtv/6LWtqgAooooAKKKKACiiigDF8Gf8iRoP8A2Dbf/wBFrW1WL4M/5EjQf+wbb/8Aota2qACiiigAooooAKKKKACiiigAooooAKKKKACiiigAooooAKKKKACiiigAooooAK8y+PX/ACJFn/2Ek/8ARctem15l8ev+RIs/+wkn/ouWgA+Av/IkXn/YSf8A9FxV6bXmXwF/5Ei8/wCwk/8A6Lir02gAooooAKKKKACiiigAooooAKKKKACiiigAooooAKKKKACiiigAooooAKKKKACiiigAooooAKKKKACiiigAooooAKKKKACiiigAooooAKKKKACiiigAooooAKKKKACiiigAooooAKKKKACiiigAooooAK8y+PX/ACJFn/2Ek/8ARctem15l8ev+RIs/+wkn/ouWgA+Av/IkXn/YSf8A9FxV6bXmXwF/5Ei8/wCwk/8A6Lir02gAooooAKKKKAOM8fsZb3w5Yt/qrjUkL++CB/7MaZ4x1/VNM121tV1D+yNOki3G9Np54eTJ+Q+nA+tT/EWCRNMsdYhUs2l3iTsB12Z5/XFXNb0K98RR77LX5LSyu4AksHkLKsinnIyflJB6j2rnkneVvI9ejKmqdJztb3k797+j1tboYfiTxjdWV7p2mDV7bThLarPcagluZ1JI4CLg8EgnJ7EfjBZ/EC7TwxrFw08d/cWEiJBdCExrMHOFYrxgjB44reu/BSg6fPpGpzabeWEAt0nCCQOnoynAPc/j9KnfwtJfaHeadrGr3GoPd4LTFVQRkcjYg4HPX1o5al3/AF/X3FKrg1CKt1V+++vTt/e+RiG/8VaTq2gWuoavDdxajL+8226oy8DKcDBHI5GD1rq9du7my0qWe0uLC3mUriS/crCOe5H6e9cTqGj32k+JvCqX2szakwnaNN8YjVFAGMAZyfUkknivQbq0tr2BoLu3iuIWxmOVA6n8DVQvqjDFezTpz0a62Vr6vpocppfiDWrnU7eC41jwnNE74ZLS5dpWHooJ5NdB4gXUG0S6OlXP2e8RN8TlVIJHODuBHPSiDw/ottMk9vo9hDKhyrx2yKyn1BA4pNf0ybWdGuNOgvPsZuBteUR7zt7jGR1HFUlJRdzGVSlKrFxVl1uv06nMeEvFWp+LdWiMcgtrOytlN2m1SZ5W447heCeKm8O5tviN4ltVP7uRYpsZ6MQM/wDoRq7ZeDLfSddtdT0u5NrHHbiC4t/Lys4AwCTkYPQ556fXNPwWp1HxD4g18cw3FwIIG/vKnGR7dKzSkmlLe/6HZOVGUakqWkeVK3nzL7+r9DsqKKK6DxwooooAKKKKACiiigAooooAxfBn/IkaD/2Dbf8A9FrW1WL4M/5EjQf+wbb/APota2qACiiigAooooAKKKKAMXwZ/wAiRoP/AGDbf/0WtbVYvgz/AJEjQf8AsG2//ota2qACiiigAooooAKKKKACiiigAooooAKKKKACiiigAooooAKKKKACiiigAooooAK8y+PX/IkWf/YST/0XLXpteZfHr/kSLP8A7CSf+i5aAD4C/wDIkXn/AGEn/wDRcVem15l8Bf8AkSLz/sJP/wCi4q9NoAKKKKACiiigAooooAKKKKACiiigAooooAKKKKACiiigAooooAKKKKACiiigAooooAKKKKACiiigAooooAKKKKACiiigAooooAKKKKACiiigAooooAKKKKACiiigAooooAKKKKACiiigAooooAKKKKACvMvj1/yJFn/2Ek/9Fy16bXmXx6/5Eiz/AOwkn/ouWgA+Av8AyJF5/wBhJ/8A0XFXpteZfAX/AJEi8/7CT/8AouKvTaACiiigAooooAKKKKACiiigAooooAKKKKACiiigAooooAKKKKACiiigAooooAKKKKAMXwZ/yJGg/wDYNt//AEWtbVYvgz/kSNB/7Btv/wCi1raoAKKKKACiiigAooooAxfBn/IkaD/2Dbf/ANFrW1WL4M/5EjQf+wbb/wDota2qACiiigAooooAKKKKACiiigAooooAKKKKACiiigAooooAKKKKACiiigAooooAK8y+PX/IkWf/AGEk/wDRctem15l8ev8AkSLP/sJJ/wCi5aAD4C/8iRef9hJ//RcVem15l8Bf+RIvP+wk/wD6Lir02gAooooAKKKKACiiigAooooAKKKKACiiigAooooAKKKKACiiigAooooAKKKKACiiigAooooAKKKKACiiigAooooAKKKKACiiigAooooAKKKKACiiigAooooAKKKKACiiigAooooAKKKKACiiigAooooAK8y+PX/IkWf/AGEk/wDRctem15l8ev8AkSLP/sJJ/wCi5aAD4C/8iRef9hJ//RcVem15l8Bf+RIvP+wk/wD6Lir02gAooooAKKKKACiiigAooooAKKKKACiiigAooooAKKKKACiiigAooooAKKKKACiiigDF8Gf8iRoP/YNt/wD0WtbVYvgz/kSNB/7Btv8A+i1raoAKKKKACiiigAooooAxfBn/ACJGg/8AYNt//Ra1tVi+DP8AkSNB/wCwbb/+i1raoAKKKKACiiigAooooAKKKKACiiigAooooAKKKKACiiigAooooAKKKKACiiigArzL49f8iRZ/9hJP/Rctem15l8ev+RIs/wDsJJ/6LloAPgL/AMiRef8AYSf/ANFxV6bXmXwF/wCRIvP+wk//AKLir02gAooooAKKKKACiiigAooooAKKKKACiiigAooooAKKKKACiiigAooooAKKKKACiiigAooooAKKKKACiiigAooooAKKKKACiiigAooooAKKKKACiiigAooooAKKKKACiiigAooooAKKKKACiiigAooooAK8y+PX/IkWf/YST/0XLXpteZfHr/kSLP8A7CSf+i5aAD4C/wDIkXn/AGEn/wDRcVem15l8Bf8AkSLz/sJP/wCi4q9NoAKKKKAM3WNds9FSL7QJZJZ22xQwpveQ98CnaVrEOrRyGO3ubaSJgrxXMRR1z04ql4i0VNYmtWt7/wCx6lakyW7ggnHGcr3HSudn8TayPD2t2tw8ZvtPKRm6tzwwZsE+x68jHXoMV1woxqQXLv1++33HHOtKnN823T7r/ed/RXnGk6fqFpqGlXtjpP2FJHUT3Dakkgulbrlc9epwPypbfRrXVbjxTJdmVvs80jRIshVVbDHdgdTwOtN4aKfxaf8ABt3EsVJpe7r8+1+36Ho1ZdrrX2nxFeaR9n2/ZY1fzd+d2ccYxx19a4xp5NVsfCun6hO5tLrd5xLkeaVOFBP5fnVnTbKK08ReIbLT7zyESzCRyvLu8k4HG7sAePbFNYZRT5nr/wAGwvrMpNcq0/4Fzu5ZUgieWVgkaKWZj0AHU1z7eMreLS7bUJ7G5KXkzR20cIDu4BwCQcYz6c1j+FrK2tdRn0TUNPkgvJbVvOZbgyR3SE4LEZ+U+n1NTeMbQWEfh+102OOPyrwLAshJUHjGT1xmiNGCqcj1/wArMJVqjp+0WlunndeSNyLxJE+n3l9Npmo2kdom9hcwBGcc/dyeelR3/i7T9O0mz1KaG5aK9GY1RFLAYzzzj9arat/bH/CI6t/bH2Lf5LeX9k34xjnO6sqVVfS/BqMoZWkQEHuNoohSpvV9+/lcJ1akdE+nbzsdPe+ILKysbO8bzJYb2RI4jGAclhkE5I4ot9a+0eI7rSFtji1iWRpw+Rk4wuMcdfXtXFatv05bfw/Kci01OKW1JPLQNux9dp4r0G1sLWzknkt4gj3EnmStkks34/y6VNSnCnG+972/D9C6dSdSVtrWv+N/xLFFFFch1hRRRQAUUUUAFFFFABRRRQBi+DP+RI0H/sG2/wD6LWtqsXwZ/wAiRoP/AGDbf/0WtbVABRRRQAUUUUAFFFFAGL4M/wCRI0H/ALBtv/6LWtqsXwZ/yJGg/wDYNt//AEWtbVABRRRQAUUUUAFFFFABRRRQAUUUUAFFFFABRRRQAUUUUAFFFFABRRRQAUUUUAFeZfHr/kSLP/sJJ/6Llr02vMvj1/yJFn/2Ek/9Fy0AHwF/5Ei8/wCwk/8A6Lir02vMvgL/AMiRef8AYSf/ANFxV6bQAUUUUAFFFFABRRRQAUUUUAFFFFABRRRQAUUUUAFFFFABRRRQAUUUUAFFFFABRRRQAUUUUAFFFFABRRXHeJviVpXhfxJbaLeW87GVEeW4XGyFWYgE9+2T7UAdjRXM+PvFbeEfCkuqQRpNO7rFbhvu72zgnHYAE++Kp6F4e8YJPHea34rNylxEwubFLVUVNynGxwcgqcc4GaAOtubm3s4HuLqeOCFBlpJXCqv1J4FPjkSWNZI3V0cBlZTkMD0INfPen6y2q6do/gnW7x4LePV5RfXEzHDqpBVN3uzMOeh2mvoREWNFRFCqowqgYAFADqKKKACiiigAooooAKKKKACiiigAooooAKKKKACiiigAoopks0UK7pZEjX1ZgBQA+isufxLottnzNSgOP7jb/wD0HNZ03jzSEO2FLm4Y9NkeM/mRWipTeyIdSC3Z0tFcr/wlOsXXFj4dnIPR5SQP5D+dG/xtedEs7EHpnBx/6FVexkt2l8yfaromzqq80+O0by+C7JI0Z3OpJhVGT/q5K6H/AIRrXrr/AI/fEUqjusIIB/Ufyrjvihpf/CJeGYNRs7qaa6mvFhZpsMNpR24HrlRRyU1vL7kHNN7RL/wGBHgm9BGCNTkyD/1zir0yvNPgTI0vgy/kf7z6pIxwO5jjr0usTUKKKKAM/VNC0zWgg1G0Wfy/uncVI/EEGnWei6bYWL2NtZRJbyAh0xnfn+8Tyfxq9VLV9VttF06S+ut5jQgbUALMScAAEitFKcrQTfoZuNON5tL1Klj4T0LTrsXdrpyJMDlWLM20+wJIH4Vah0bT7c3hit9v24k3Hzsd5Oc9+Op6Yq3E/mRJJsZNyg7W6j2PvT6HUm3q2EacEtEjLm8N6PcaZFpstkr2sJzGhdsr9Gzn9aLbw3o1n5wt7COMTxeTIoJw6+hGf161qUUvaTta7D2UL35UZml+HdJ0V3k0+zWF5Bhm3Mxx6ZJOBVi90uz1GS3ku4fMa2kEkR3EbWHfg8/jVuihzk3zN6jUIKPKloQ3drDfWstrcpvhlUq65IyPqOarHRdOMdlH9n+SwINuN7fIRwO/P45q/RSUpLRMbjF6tFC/0TTdUuILi9tRLLbNuibcQVOc9jz071fqhpWsW+rxztAskbW8zQyJKAGVh9Cav05cy92XQUeV+9HqFFFFQWFFFFABRRRQAUUUUAFFFFAGL4M/5EjQf+wbb/8Aota2qxfBn/IkaD/2Dbf/ANFrW1QAUUUUAFFFFABRRRQBi+DP+RI0H/sG2/8A6LWtqsXwZ/yJGg/9g23/APRa1tUAFFFFABRRRQAUUUUAFFFFABRRRQAUUUUAFFFFABRRRQAUUUUAFFFFABRRRQAV5l8ev+RIs/8AsJJ/6Llr02vMvj1/yJFn/wBhJP8A0XLQAfAX/kSLz/sJP/6Lir02vMvgL/yJF5/2En/9FxV6bQAUUUUAFFFFABRRRQAUUUUAFFFFABRRRQAUUUUAFFFFABRRRQAUUUUAFFFFADZJEijaSR1REBZmY4AA6kmsaHxl4auNUi0u31q0uLuYlUjhk8zJAJxlcgdD1NaOpWS6jpd3YyY2XMDwtn0ZSP615H8KtUvLfTrewsfBa3c9vdtFdakGjiMYLZOWIyxUHpnoAKAPQF8c2Fzp3iC5sbeeaXQPMWeGQBC7ICeDzx8p5x26VkeGPiSvjDR9TS1thp+s29u8kNvI3mBxtyjDgZGcZGPT1qhotull8X/FOiyjFtq9mtwB/e4Ab9Xf8q5rw74ZvtQ8GxaloreV4k8MXk1uuP8AlugbcYz6/fIH4j6AHp/gLXpvEngzT9UuXD3MqssxCgfMrFTwOnTP41heIfiXpuieMNOtP7VtZtNeOZbwQDzXikUfLnbk8njH51W+Cct1/wAI3qFtcWc1ssd8zxLIhUBWA+UZ64IP510es+CdP1G7028sUt9NuLHUFvGkhtlzNjJZWxj72evNAGzpOqW+taZDqNqsqwzglRNGUbgkcg8jpXkfiCdNU8f+LrE6HqGria0hs4/sce4QEKrbmY/dw4yPXBr2isrSfDmn6NqOp6haiQ3GqTCW4Z3zkjOAPQDJoA8psI9S8YfD7UPA9+jReINDKSQxStgyIvQZ9gSvpypzXS6X8QPEk9nbaYvgvU31dQscsk6GOAEcFy5HA74/Wu/WytUu3vFtoVuXXa0wjAdh6FupHAqegDzq0+HButY8WW2rW8baTq0y3FrIrjzI5PmJZR/CQXI98eldT4S0bUtA0RNN1LVv7TMLYhlMWxlj7KeTnHr+FblFABRRRQAUUUUAFFFMlmihXdLIka+rMAKAH0Vlz+JdFts+ZqUBx/cbf/6Dms6bx5pCHbClzcMemyPGfzIrRUpvZEOpBbs6WiuV/wCEp1i64sfDs5B6PKSB/Ifzo3+NrzolnYg9M4OP/Qqr2Mlu0vmT7VdE2dVTJZooV3SyJGvqzACuY/4RrXrr/j98RSqO6wggH9R/KnxeA9M3b7m4url+5ZwAf0z+tHJTW8vuQc03tE05/Eui22fM1KA4/uNv/wDQc1nTePNIQ7YUubhj02R4z+ZFX4PC2h22NmnRNj/npl/55rRhtoLcbYIY4h6IoX+VF6S6Nhao+qRzX/CU6xdcWPh2cg9HlJA/kP50b/G150SzsQemcHH/AKFXVUUe0itor8w5G95M5X/hGteuv+P3xFKo7rCCAf1H8qfF4D0zdvubi6uX7lnAB/TP6109FHtp9HYPZQ6mTB4W0O2xs06Jsf8APTL/AM81ow20FuNsEMcQ9EUL/KpaKzcpPdlqKWyCiiipKCvMvj1/yJFn/wBhJP8A0XLXpteZfHr/AJEiz/7CSf8AouWgA+Av/IkXn/YSf/0XFXpteZfAX/kSLz/sJP8A+i4q9NoAKKKKACuU8bMZbvQrNv8AVzX6l/fBH+Jrq65fx1DImn2eqRKWOnXSTMB1255/XFb4f+KjnxP8JkPinWtR0/WLa2W+/suxePd9rNt5wZ8n5T6dKg17xVcWl3YaeNUgsRJbLNPfJAZgSegRcHg479j+evq+jXeuJvtNae2tLmELJD5KyK6nnIyflOD29qjufCSg2M2l6hLYXVlCIEmCCTenoynAPf8AOt4SopR5t/630/zMJwrNy5dtOv5a/wCRjWvja5Tw9qszTJezWTqkNyIiiyhzgErxgjB4qx9t8R6Zqei219qkVzHfyfvNsCqw4GV6YI5HPBrXfw5JeaPdWGqanPevc4JlKhAhHTao4H9a5+90u80zxB4cS81WW/YTFE3IEVFAGOB1PqSauLpSbUUuvTy6ad/QiSrQScm+nXz6666ep12sXNxaabJNbT2UEqkYe9crEOe5FYmna3q1xqEEM2qeGpY3fDJbXDmRh/sgnrXSXFtb3cJhuYI54m6pIgZT+BqtDomk28qzQ6XZxSIcq6W6AqfYgVyQnBRaa1OucJuaaehV8Uz6jaaDPd6ZN5U9viQ/KG3KPvDkHtz+FZsXiG51XX9ItdPlCQSW32m7AUHgjhckcc+nrXTzLG8EiTAGNlIcHpjHNcZ8N9Pjjtr3UF3FJZTFAz9fLXn+Z/StafJ7KTa1X6/5bmdXn9tGKej/AE/z2LehZg8d6/bKfkcRy4z3IGf511dcp4TH27XNb1ocxTTiGFv7ypxke3SurrPEfHbyX5F4f4L+b/MKKKKwOgKKKKACiiigAooooAKKKKAMXwZ/yJGg/wDYNt//AEWtbVYvgz/kSNB/7Btv/wCi1raoAKKKKACiiigAooooAxfBn/IkaD/2Dbf/ANFrW1WL4M/5EjQf+wbb/wDota2qACiiigAooooAKKKKACiiigAooooAKKKKACiiigAooooAKKKKACiiigAooooAK8y+PX/IkWf/AGEk/wDRctem15l8ev8AkSLP/sJJ/wCi5aAD4C/8iRef9hJ//RcVem15l8Bf+RIvP+wk/wD6Lir02gAooooAKKKKACiiigAooooAKKKKACiiigAooooAKKKKACiiigAooooAKKKKACuZ8KeE5PDOo65cfa1lg1O7NxFCqY8nJYkZzz1H5V01FAGXL4c02bxLD4ieJjqEMHkI4cgBOeo6H7x61btNOsrBp2s7SG3a4kMsxjQKZHPVmx1PvVmigAoopks0UC7pZEjX1dgBQA+isufxLottnzNSgOP7jb//AEHNZ03jzSEO2FLm4Y9NkeM/mRWipTeyIdSC3Z0tFcr/AMJTrF1xY+HZyD0eUkD+Q/nRv8bXnRLOxB6Zwcf+hVXsZLdpfMn2q6Js6qmSzRQrulkSNfVmAFcx/wAI1r11/wAfviKVR3WEEA/qP5U+LwHpm7fc3F1cv3LOAD+mf1o5Ka3l9yDmm9omnP4l0W2z5mpQHH9xt/8A6Dms6bx5pCHbClzcMemyPGfzIq/B4W0O2xs06Jsf89Mv/PNaMNtBbjbBDHEPRFC/yovSXRsLVH1SOa/4SnWLrix8OzkHo8pIH8h/Ojf42vOiWdiD0zg4/wDQq6qij2kVtFfmHI3vJnK/8I1r11/x++IpVHdYQQD+o/lT4vAembt9zcXVy/cs4AP6Z/Wunoo9tPo7B7KHUyYPC2h22NmnRNj/AJ6Zf+ea0YbaC3G2CGOIeiKF/lUtFZuUnuy1FLZBRRRUlBRRRQAUUUUAFFFFABRRRQAUUUUAFFFFABXmXx6/5Eiz/wCwkn/ouWvTa8y+PX/IkWf/AGEk/wDRctAB8Bf+RIvP+wk//ouKvTa8y+Av/IkXn/YSf/0XFXptABRRRQAUUUUAFFFFABRRRQAUUUUAFFFFABRRRQAUUUUAFFFFABRRRQAUUUUAFFFFAGL4M/5EjQf+wbb/APota2qxfBn/ACJGg/8AYNt//Ra1tUAFFFFABRRRQAUUUUAYvgz/AJEjQf8AsG2//ota2qxfBn/IkaD/ANg23/8ARa1tUAFFFFABRRRQAUUUyaVYIJJmBKxqWIHXAGaAH0Vy8fj/AE14UuZNP1OG1dtouZLceWO3UE/pXTI6yIrowZWGQR0IrSdOcPiRnCrCfwu46iiiszQKKKzodSuZdcuNPbTZo7eKMOl2fuSE44HHv69qai3exLkla5o0UUUigoorN1fWE0v7NGsXn3N3MsUMW7bnJ5JODgAc1UYuTsiZSUVdmlRXPT+MLaLUbmxh0vU7uW2bbIba3DgH86uya/bRX2nWUkFwk2oIXjDIBswMkNzkH86t0proQq1N9TUorFh8VafN4gk0TbMlyhKhnUBGIGSAc5zj2qV/ENqt1qVqEk83TYfNlLYCkbcgA5/pS9lNdPMftYPr5GrRVHRdRbVtIt79rc25nXd5ZbdgZ45wOvWr1RJOLsy4tSSaCvMvj1/yJFn/ANhJP/Rctem15l8ev+RIs/8AsJJ/6LlpDD4C/wDIkXn/AGEn/wDRcVem15l8Bf8AkSLz/sJP/wCi4q9NoAKKKKACiiigAooooAKKKKACiiigAooooAKKKKACiimSzRQLulkSNfV2AFAD6Ky5/Eui22fM1KA4/uHf/wCg5rNm8eaSh2wR3Nwx6bI8Z/M1oqU3siHUgt2dNRXK/wDCU6xdcWPh2cg9HlJA/kP50bvG150SzsQfXBx/6FVexkt2l8yfaromzqqZLNFAu6WRI19XYAVzH/CNa7df8fviKVQeqwg4P6j+VPi8B6Zu33NxdXD9yzgA/pn9aOSmt5fcg5pvaJpz+JdFts+ZqUBx/cO//wBBzWbN480lDtgjubhj02R4z+ZrQg8LaHbY2adE2P8Anpl/55rRhtoLcbYIY4h6IoX+VF6S6Nhao+qRzX/CU6xdcWPh2cg9HlJA/kP50bvG150SzsQfXBx/6FXVUUe0itor8w5G95M5X/hGtduv+P3xFKoPVYQcH9R/KnxeA9M3b7m4urh+5ZwAf0z+tdPRR7afR2D2UOqMmDwtodtjZp0TY/56Zf8AnmtGG2gtxtghjiHoihf5VLRWblJ7stRS2QUUUVJQUUUUAFFFFABRRRQAUUUUAFFFFABRRRQAUUUUAFFFFABRRRQAUUUUAFFFFABRRRQAV5l8ev8AkSLP/sJJ/wCi5a9NrzL49f8AIkWf/YST/wBFy0AHwF/5Ei8/7CT/APouKvTa8y+Av/IkXn/YSf8A9FxV6bQAVHNNHbwSTzOEjjUs7HoAOSakqvfxW0+n3EN4wS3kjKyMzbQARg89qatfUTvbQybHxfZX9zFFHZ36RTttiuZLciJz6Bs/0rerh45dV8G32n2LXsWoaZdSiKJGGJYwT29QMj1H0rJmhvNe1jWDLpL6lNBM0cTfbxD9lAJAwp69M56V2vDRk7xdo9/+HscKxMoq0leXb5eVz06ivO7+K8u4PCkGozOJ3leOSSGYFiMgffUnnHXmpkU+HdX8RWmll44YrETxxly2x8DkZ+pqPq2mktf+Dbcv61rrHT/gX2Oq1/Wv7DtIJ/s/n+bOsO3ftxnPPQ+laleW3Wl6fb+GdH1GGd2u7u4jaYmYnzTk5yueqnj8ea0vE1obXXbjV9Qhe+sFKIskF0Uksm46Lnrk5q3hoO0U9dfna3mQsTNXk1pp8r38j0CsJPFVqdPv9SaJ/sVpN5SSKctMeAcDjucDnn2rbVlkjDDlWGRn0rh/EaWul3WlaHp9jPJbrN9snt7ZDK5APHBPQnPftWNCEZy5X/Xc3rzlCPMv6fQ6vRtYtdcsBeWodU3FGSQAMpHYgE/5NZ9z4wsIb2W0trW+1CSA4mNnB5ixn3OaxfC+oGHxNqtgLW6s0vgbm3iuovLYN/Fx+f8A3zVn4cSQrotzblgt1HcMZ1Y/MOmCfy/StZUYw5pNaK1vmYwrynyxTs3e/wAv89zZj8SWMuo2NjGkxe+iMsTbAFAGcg5OQeD2qtP4ws1sNTu7a3lnj08hDIcLHKxOMK3Ofy/nWD4tW4v/ABVYLpVwvnSWMojdDnPD5APqeRntWx4Yi0nV/DNpbi0Ci0kHmQEkbZV7t65PPNN0qcYKbXb83/wwKrUlN00+/wCS/wA7nQWkzXNnDO8RiaWNXMZ6qSM4qaiiuJnatgooopDCiiigAooooAKKKKAMXwZ/yJGg/wDYNt//AEWtbVYvgz/kSNB/7Btv/wCi1raoAKKKKACiiigAooooAxfBn/IkaD/2Dbf/ANFrW1WL4M/5EjQf+wbb/wDota2qACiiigAooooAKraj/wAg26/64v8AyNWabJGssbxuMo6lWHqDTTsxNXR5XFJqY8EWUN2YI9Dmn2yywoWmQbyecnGMjtWx4m8yfxFp+jx2bX1iloHjtBdCBZTyAS3fAAwP/r11y6Dpi6OdIFqPsR/5ZF2PfPXOevPWo7vw3pF9ZQWd1ZLLDbrtiDO25B6Bs57etd/1qDlzW6v8eu+55/1Sahy36L8Om23yOOEmsaJ4W1yPyms0R0+zxC6WZrcMcMMg5HHTOOtbFtpmn6Dokup6XK322TT2k5mLecdoO8qeuD6etb1noel2FjJZW1lElvKMSIRu3/Unk/jUWm+GtH0iZ5rGxSKRxtZizMcenJOKiWIjJP1+/wBdf8y44eUWvT7t9tP8jz6zs9Sk0611ax0xlu/MDtqb6mp8znkMpIx6Y6/Wt2WwGqeMfEFk3BmsFUezYXH64rej8H+HorwXaaXEJQdw5YqD/u5x+lX49Ls4dSm1KOHF1OgSSTceQMYGM47Crniottrt+qfd9v8AgEQwkkkpd/0a7Lv/AME4KwvW8QJ4e0Rs7rSRmu19BHwufqKhmhvNe1jWDLpL6lNBM0cTfbxD9lUEgYU9emc9K72z0HS7DUJtQtbUR3M+fMfcxzk5PBOBz6VDqHhXQ9UuvtV5p6STHq4ZlLfXBGfxoWKpqWi0/W931X5ieEqOOru/0tZdH+RzF9p+raloGkfafLvnt1drmy+1gGdQcBtynkgd8963PD1tpOr6Rpt/Fbyn7IX+ziaRmaI55Gc/MB0GewFXr7w1o2o28FvdWEbRW4xEqkpsHoNpFXrS0t7G1jtbWJYoYxhUUcCsp11KFlo7+nfzN6dBxnd6qy89reRxOnf23/wl2v8A9j/YM+anmfa9/vjG38avaz5n/Cb+G/N2+Zsk37emdvOPaujtdLs7O8ubu3h2TXZBmbcTuI6cE4HXtRPpdndX9vfTQ7ri1z5T7iNuevAOD+NDrxc726W/Cwlh5KFr9b/jc406dLe33iKa04vbO8S4tyP7yg/L+IyKk0E2niPxFrUkqeZbXltAzIHI/hGRkc8EEfhXX22nWlncXNxbxbJbpg8zbidxH1PH4VFY6JpumXVxdWdqIZbk5lIYkNznoTgde1N4hcrXWyt+H+QlhmpJ9Lu/4/56l1VVEVEUKqjAAGABTqKK4ztCvMvj1/yJFn/2Ek/9Fy16bXmXx6/5Eiz/AOwkn/ouWgA+Av8AyJF5/wBhJ/8A0XFXpteZfAX/AJEi8/7CT/8AouKvTaACiiigAoopks0UC7pZEjX1dgBQA+isufxLottnzNSgOP7h3/8AoOazZvHmkodsEdzcMemyPGfzNaKlN7Ih1ILdnTUVyv8AwlOsXXFj4dnIPR5SQP5D+dG7xtedEs7EH1wcf+hVXsZLdpfMn2q6Js6qmSzRQLulkSNfV2AFcx/wjWu3X/H74ilUHqsIOD+o/lT4vAembt9zcXVw/cs4AP6Z/WjkpreX3IOab2iac/iXRbbPmalAcf3Dv/8AQc1mzePNJQ7YI7m4Y9NkeM/ma0IPC2h22NmnRNj/AJ6Zf+ea0YbaC3G2CGOIeiKF/lRekujYWqPqkc1/wlOsXXFj4dnIPR5SQP5D+dG7xtedEs7EH1wcf+hV1VFHtIraK/MORveTOV/4RrXbr/j98RSqD1WEHB/Ufyp8XgPTN2+5uLq4fuWcAH9M/rXT0Ue2n0dg9lDqjJg8LaHbY2adE2P+emX/AJ5rRhtoLcbYIY4h6IoX+VS0Vm5Se7LUUtkFFFFSUFFFFABRRRQAUUUUAFFFFABRRRQAUUUUAFFFFABRRRQAUUUUAFFFFABRRRQAUUUUAFFFFABRRRQAUUUUAFFFFABRRRQAUUUUAFeZfHr/AJEiz/7CSf8AouWvTa8y+PX/ACJFn/2Ek/8ARctAB8Bf+RIvP+wk/wD6Lir02vMvgL/yJF5/2En/APRcVem0AFRzwRXMDwTxrJFINrIwyCKkooAyLDwpoemXQurTT0jmHRyzNt+m4nH4Uah4V0PVLr7Veaekkx6uGZS31wRn8asXmsW9lqVnp7JLJPeE7FjAO0DqW54H+FX61c6qak27+piqdJpxSVl5FCTRNNkazJtFH2E7rcISojP0BwenepF0uyXUJr/yAbieMRyOWJDL6Yzj9Kt1Vu9Ss7Ge2guZtkl0+yFdpO5vTgcde9SpTeibLcYLVpf1oZqeDPDsZZk0yMEuHzvbIIORjnj6Diprvwvol9qH9oXWnpLcZBLFmwcdMrnB/EVrUU/a1L35n95Psadrcq+4KqJplmmpyaksP+lyII2k3E/KO2M4HSrdFQm1saNJ7lOfSrK51C31CWHddWwIikDEbQevAOD+NU7/AMJ6Fqd0bq709HmP3mVmTd9dpGfxrYoqlUnHZsl04S3SKCaHpsd3bXUdoqS2kZjgKkgIpzkYBx3PanWmkWFje3F5a2/lTXRzMVZsOfXGcZ/CplvbVro2i3MJuFG4wiQbwPXHWq66xbnXH0dkkS4WETKWA2uuccHP9Kd6jvvt+BNqattv+JfooorM1CiiigAooooAKKKKACiiigDF8Gf8iRoP/YNt/wD0WtbVYvgz/kSNB/7Btv8A+i1raoAKKKKACiiigAooooAxfBn/ACJGg/8AYNt//Ra1tVi+DP8AkSNB/wCwbb/+i1raoAKKKKACiiigAooooAKKKKAKWr6rbaLp0l9dbzGhA2oAWYk4AAJFWon8yJJNjJuUHa3Uex965fxsxlu9Cs2/1c1+pf3wR/iaZ4p1rUdP1i2tlvv7LsXj3fazbecGfJ+U+nSumNDnjG27v+Byyr8kpX2VvxOuorite8VXFpd2GnjVILESWyzT3yQGYEnoEXB4OO/Y/nDa+NrlPD2qzNMl7NZOqQ3IiKLKHOASvGCMHimsLUcVJdf+G9AeLpqTi+n/AA/qd3RXGfbfEemanottfapFcx38n7zbAqsOBlemCORzwa6XWLm4tNNkmtp7KCVSMPeuViHPcis5UnFpXvc0jWUk3Zq3/Dl6iuW07W9WuNQghm1Tw1LG74ZLa4cyMP8AZBPWtHxTPqNpoM93pk3lT2+JD8obco+8OQe3P4UOi1NRb3BVouDmlsbFUNK1i31eOdoFkja3maGRJQAysPoTWJF4hudV1/SLXT5QkElt9puwFB4I4XJHHPp60mhZg8d6/bKfkcRy4z3IGf51fsbRfNva/wCNiPbpyXLte34XOrooormOkKKKKACvMvj1/wAiRZ/9hJP/AEXLXpteZfHr/kSLP/sJJ/6LloAw/hZ4jXQPAdzEsRe7nv3eJWBChfLjG4+oyD09K6bRPEdtY3E1/ezXd7fXI2lI1+VRnOOT/IcVh/CPQrXxF4JuJL5pTNDfPFHKH5VBHGQvPGMk13Gk6Bq+iX8aW9/FNYE/vEkXDAe3/wCuuyEqSp26nNJVHO/QZ/wlOsXXFj4dnIPR5SQP5D+dG7xtedEs7EH1wcf+hV1VFY+0itor8zTkb3kzlf8AhGtduv8Aj98RSqD1WEHB/Ufyp8XgPTN2+5uLq4fuWcAH9M/rXT0Ue2n0dg9lDqjJg8LaHbY2adE2P+emX/nmtGG2gtxtghjiHoihf5VLRWblJ7stRS2QUUUVJQUUUUAFFFFABRRRQAUUUUAFFFFABRRRQAUUUUAFFFFABRRRQAUUUUAFFFFABRRRQAUUUUAFFFFABRRRQAUUUUAFFFFABRRRQAUUUUAFFFFABRRRQAUUUUAFFFFABRRRQAV5l8ev+RIs/wDsJJ/6Llr02vMvj1/yJFn/ANhJP/RctAB8Bf8AkSLz/sJP/wCi4q9NrzL4C/8AIkXn/YSf/wBFxV6bQAUUUUAcpCxuPifOH6WtgAg+pGf/AEI1m+IfE17p11cmHxFaLNDJhLCO1Lhhno0hHDY6itK8U6Z8Q7O8YYh1G3NuW9HHIz+S0248DzSC+t7fWpLeyvpDK8HkKx3Hn72c4z2r0YypqUXPay/4PR/11PNlGq4yjDe7/wCB1X9dGLea1quparp+labcR2L3FoLqacxiQqD2APH/AOuqfiaW602Tw9NqkouZbe5dpJIY8bwMEHb64x7VrXnhV5ZbG7sdSeyvrOAQCcRBw6gY5UmpJfDUtw2lyXGpyTy2E7TO8kYJlJPTgjaPzqI1KUWmttemvXqXKnVkpJ76ddOnS4eFL3UNVspNUvLlGiuXJgt0C4hUEjBYDJP1pmuatqVlfiK01DQbeMoDsv5mWTOTzgHp/wDXqzomgf2Hc3n2e5zZ3MnmJbeXjym74OentjsKu3Olabey+bd6fa3EgGN8sKscemSKxc6aqt9DZQqOko9fUp6Bf3l9DM15d6XcsrAKdOkLqP8Aez3rO8Ua5feHNStL5nM2myq0cluFXIfBIIPX/wDVXQWthZ2KstnaQWyscsIYwgP1xWbqHhuLVtajvb6YTW0MLRx2pTgFurE5649uwohKn7RuS0CcKnslGL94pWGt6ha6FBfajb3moS3xaREsbdXECH7oOMdu5yareCNcnvtMgsrq31KaRjJm8kQmMjJ48zOc9q29A0aTQ9Oawa9a6iDkxbk2mNT/AA9Tn9OtTaTpEOi6YthaSSGNCxVpCC2Sc9gPWrnUp2kkuun4kwp1eaLb2Wv4HN2Fja6d8STb2kKxRjT84Hc7hkknkn3NWPEObfxr4euEOGkMkTc9Rgf/ABRoTwnrK6uNVbxNuutnll/sKDKZzjGcfjii/H9p/ELT7dPmTTYGmlPYM3QfX7prXmTmne9ou+/bzMeWUYOLja8lbbv5HV0UUV556IUUUUAFFFFABRRRQAUUUUAYvgz/AJEjQf8AsG2//ota2qxfBn/IkaD/ANg23/8ARa1tUAFFFFABRRRQAUUUUAYvgz/kSNB/7Btv/wCi1rarF8Gf8iRoP/YNt/8A0WtbVABRRRQAUUUUAFFFFABRRRQBy/jqGRNPs9UiUsdOukmYDrtzz+uKtavo13rib7TWntrS5hCyQ+Ssiup5yMn5Tg9vat6itlWaikt0YOipSbezOdufCSg2M2l6hLYXVlCIEmCCTenoynAPf86mfw5JeaPdWGqanPevc4JlKhAhHTao4H9a3KKXtp9/69R+wp66f5fdscHe6XeaZ4g8OJearLfsJiibkCKigDHA6n1JNdvcW1vdwmG5gjnibqkiBlP4GpaKdSq52vugp0VC9tn/AJFGHRNJt5Vmh0uzikQ5V0t0BU+xAq3MsbwSJMAY2UhwemMc0+is3Jt3bNFFJWSOJ+G+nxx217qC7ikspigZ+vlrz/M/pVvwmPt2ua3rQ5imnEMLf3lTjI9uldXRW067m5O25hTw6goq/wAIUUUVznSFFFFABXmXx6/5Eiz/AOwkn/ouWvTa8y+PX/IkWf8A2Ek/9Fy0AHwF/wCRIvP+wk//AKLir02vMvgL/wAiRef9hJ//AEXFXptABRRRQAUUUUAFFFFABRRRQAUUUUAFFFFABRRRQAUUUUAFFFFABRRRQAUUUUAFFFFABRRRQAUUUUAFFFFABRRRQAUUUUAFFFFABRRRQAUUUUAFFFFABRRRQAUUUUAFFFFABRRRQAUUUUAFFFFABRRRQAV5l8ev+RIs/wDsJJ/6Llr02vMvj1/yJFn/ANhJP/RctAB8Bf8AkSLz/sJP/wCi4q9NrzL4C/8AIkXn/YSf/wBFxV6bQAUUUUAFFFFABRRRQAUUUUAFFFFABRRRQAUUUUAFFFFABRRRQAUUUUAFFFFABRRRQBi+DP8AkSNB/wCwbb/+i1rarF8Gf8iRoP8A2Dbf/wBFrW1QAUUUUAFFFFABRRRQBi+DP+RI0H/sG2//AKLWtqsXwZ/yJGg/9g23/wDRa1tUAFFFFABRRRQAUUVn61rNvoWnm+ukleMMFxEAWyfqRTjFydkTKSirvY0KKwrLxdZXeoRWM1pfWE8w/dLeQeX5n05NbtVKEoO0kKE4zV4sKKKKgsKKQ8D1qhouo3Op2bzXWnS2DrIUEUvUgfxdBVKLauS5JOxoUUUVJQUUVmnWY21/+yYo97Rwma4k3YEQ42jpyTn24qlFy2JlJR3NKisXRPFWn69czW9osyPCu796oG9c4yuCcj/GpNW8SWOkTxWsiz3N1KMpbW0e+Qj1xVeynzcttSfaw5ee+hrUVgTeMLG30xr6a1vYgkqxPDJDtkViMjIJAx+NXZddtY9bi0dUlluXTzGMagrEvq5zx/8Aq9aHSmuglVg+v9M0qKy/D+tf27YPeC2MCCVo0y+7eB/EDgf5FalTKLi+V7lxkpLmWwV5l8ev+RIs/wDsJJ/6Llr02vMvj1/yJFn/ANhJP/RctSUHwF/5Ei8/7CT/APouKvTa8y+Av/IkXn/YSf8A9FxV6bQAUUUUAFFFFABRRRQAUUUUAFFFFABRRRQAUUUUAFFFFABRRRQAUUUUAFFFFABRRRQAUUUUAFFFFABRRRQAUUUUAFFFFABRRRQAUUUUAFFFFABRRRQAUUUUAFFFFABRRRQAUUUUAFFFFABRRRQAUUUUAFeZfHr/AJEiz/7CSf8AouWvTa8y+PX/ACJFn/2Ek/8ARctAB8Bf+RIvP+wk/wD6Lir02vMvgL/yJF5/2En/APRcVem0AFFFFABRRRQAUUUUAFFFFABRRRQAUUUUAFFFFABRRRQAUUUUAFFFFABRRRQAUUUUAYvgz/kSNB/7Btv/AOi1rarF8Gf8iRoP/YNt/wD0WtbVABRRRQAUUUUAFFFFAGL4M/5EjQf+wbb/APota2qxfBn/ACJGg/8AYNt//Ra1tUAFFFFABRRRQAVy3xF/5FV8f890/nXU1U1HTLPVrU2t9D5sJYNt3FeR05BBrWlNQqKT6GVaDnTcV1ORT7dc+M9Lh8RNBG0MZksxaqfLkbvksc5GBx9PxypobzXtY1gy6S+pTQTNHE328Q/ZQCQMKevTOeleg3ukWGoyW0l1Bve1ffCwdlKHjuCPQVV1DwroeqXX2q809JJj1cMylvrgjP411QxMFrbpb8fVb+pyTws2rX639dOuj26aHK3kl7dWnhrStWnKxXTutyyTBvN2nCgspwcj36mrHimGLw/4d+w6PLIkM14qTItxzGCuSoY/dBwOvqexrqrrQ9LvbBLC4somto/uRgbdn0I5H4UyDw9pFvpr6dHYxC1kOXjOW3H1JPOeKSxELp9nt03KeGnZrut+u39f5HLaDp9/p3iO3aDSRpVlPEwmhOoLMJMAkMBnOenSsm1t3HghdUhGZtN1Izj6ZXP9D+Fd5pnhnRtHmaaxsUikIxvLMxA9ixOPwqa20TTbTTptPgtgtrNu8yMux3buDyTmm8VG9/T8L36vuSsJLlt6/ja3RduxycV++qatrXiGzbfHYWPlWp7biu4n8Dn86xbOz1KTTrXVrHTGW78wO2pvqanzOeQykjHpjr9a9I03SLDR7VrWwtxDCzFmXcWyT7kn0qlH4P8AD0V4LtNLiEoO4csVB/3c4/SnHFQjdJaaW9PPVfqKWFnKzb11v6vto/0OZ8TWrW2uXGsajC19YLsRZILopJZNx0XPXJzWv4qNrpWk3up2cJF/qSpbhwWLPngYHrjPQdq07vwvol9qH9oXWnpLcZBLFmwcdMrnB/EVbvNMs7+W3luofMe1fzIssQFb1wDz+NZ+3j7l76b/AOW/9djT6vL37W12/wA9v67nAQ3yaTreh3S6bqNlFFELO4e6t/LV89CDn1yfwrY0944fidqQumCyzQKLcsfvDC5A/L9DXT6jplnq1obW+hE0JYNt3FeR0OQQah1LQNL1eOOO/s1nEYwjEkMB6bgc/rTeIhLdbpr8biWHnHZp2aa+6xhfESWN/DvlpIjOl1HuUHJXIOMimeFljj1PWNK1RM6lM5eSYkgzxHpt9AM9B0z7VtDwroY0/wDs9bBFty4kKh2BLDoS2cn86tT6RYXOowajLb5urcYjlDMpA9ODyOT19aSrQVP2av1/SxTozdX2jt00++5Pa2sFlax21tGI4YlCog7CpqKK5G7nWlbRBXmXx6/5Eiz/AOwkn/ouWvTa8y+PX/IkWf8A2Ek/9Fy0hh8Bf+RIvP8AsJP/AOi4q9NrzL4C/wDIkXn/AGEn/wDRcVem0AFFFFABRRRQAUUUUAFFFFABRRRQAUUUUAFFFFABRRRQAUUUUAFFFFABRRRQAUUUUAFFFFABRRRQAUUUUAFFFFABRRRQAUUUUAFFFFABRRRQAUUUUAFFFFABRRRQAUUUUAFFFFABRRRQAUUUUAFFFFABXmXx6/5Eiz/7CSf+i5a9NrzL49f8iRZ/9hJP/RctAB8Bf+RIvP8AsJP/AOi4q9NrzL4C/wDIkXn/AGEn/wDRcVem0AFFFFABRRRQAUUUUAFFFFABRRRQAUUUUAFFFFABRRRQAUUUUAFFFFABRRRQAUUUUAYvgz/kSNB/7Btv/wCi1rarF8Gf8iRoP/YNt/8A0WtbVABRRRQAUUUUAFFFFAGL4M/5EjQf+wbb/wDota2qxfBn/IkaD/2Dbf8A9FrW1QAUUUUAFFFFABRRRQAVQvNYt7LUrPT2SWSe8J2LGAdoHUtzwP8ACr9cpCxuPifOH6WtgAg+pGf/AEI1rSgpXv0VzKrNxtbq0jq6K4LxD4mvdOurkw+IrRZoZMJYR2pcMM9GkI4bHUVo3mtarqWq6fpWm3Edi9xaC6mnMYkKg9gDx/8ArrT6tOyfR+v+X5GX1qF2uq9P8/zsdFd6lZ2M9tBczbJLp9kK7SdzenA4696tVw/iaW602Tw9NqkouZbe5dpJIY8bwMEHb64x7VteFL3UNVspNUvLlGiuXJgt0C4hUEjBYDJP1pTo2pqaf9X6DhXvUdNr+rdTeorntc1bUrK/EVpqGg28ZQHZfzMsmcnnAPT/AOvVrQL+8voZmvLvS7llYBTp0hdR/vZ71DpSUOY0VWLnydTXorl/FGuX3hzUrS+ZzNpsqtHJbhVyHwSCD1//AFUthreoWuhQX2o295qEt8WkRLG3VxAh+6DjHbucmq9hLlUl1J+sQ53F9Dp6gW9tWujaLcwm4UbjCJBvA9cda5bwRrk99pkFldW+pTSMZM3kiExkZPHmZzntTLCxtdO+JJt7SFYoxp+cDudwySTyT7mqdDllKMnqiFiOaMZRWjZ0i6xbnXH0dkkS4WETKWA2uuccHP8ASr9cp4hzb+NfD1whw0hkibnqMD/4o11dZ1IJKLXVGtObcpJ9H/wQooorI1CvMvj1/wAiRZ/9hJP/AEXLXpteZfHr/kSLP/sJJ/6LloAPgL/yJF5/2En/APRcVem15l8Bf+RIvP8AsJP/AOi4q9NoAKKKKACiiigAooooAKKKKACiiigAooooAKKKKACiiigAooooAKKKKACiiigAooooAKKKKACiiigAooooAKKKKACiiigAooooAKKKKACiiigAooooAKKKKACiiigAooooAKKKKACiiigAooooAKKKKACvMvj1/wAiRZ/9hJP/AEXLXpteZfHr/kSLP/sJJ/6LloAPgL/yJF5/2En/APRcVem15l8Bf+RIvP8AsJP/AOi4q9NoAKKKKACiiigAooooAKKKKACiiigAooooAKKKKACiiigAooooAKKKKACiiigAooooAxfBn/IkaD/2Dbf/ANFrW1WL4M/5EjQf+wbb/wDota2qACiiigAooooAKKKKAMXwZ/yJGg/9g23/APRa1tVi+DP+RI0H/sG2/wD6LWtqgAooooAKKKKACiiigArlLxTpnxDs7xhiHUbc25b0ccjP5LXV0VpTnyN+asZ1Ic6Xk7nJXHgeaQX1vb61Jb2V9IZXg8hWO48/eznGe1W7zwq8stjd2OpPZX1nAIBOIg4dQMcqTXRUVf1ip3/Bf0yPq9Lt+L/pGDL4aluG0uS41OSeWwnaZ3kjBMpJ6cEbR+dTaJoH9h3N59nuc2dzJ5iW3l48pu+Dnp7Y7CtiipdWbXLfT+mUqMFLmS1/pFS50rTb2XzbvT7W4kAxvlhVjj0yRT7Wws7FWWztILZWOWEMYQH64qxRUc0rWuXyxve2pi6h4bi1bWo72+mE1tDC0cdqU4BbqxOeuPbsKl0DRpND05rBr1rqIOTFuTaY1P8AD1Of061q0VTqzceVvQlUoKXMlqUNJ0iHRdMWwtJJDGhYq0hBbJOewHrWGnhPWV1caq3ibddbPLL/AGFBlM5xjOPxxXV0U41pxbffyQpUYSST6batHKX4/tP4hafbp8yabA00p7Bm6D6/dNdXRRSnPmSXZDhDlbfdhRRRWZoFeZfHr/kSLP8A7CSf+i5a9NrzL49f8iRZ/wDYST/0XLQAfAX/AJEi8/7CT/8AouKvTa8y+Av/ACJF5/2En/8ARcVem0AFFFFABRRRQAUUUUAFFFFABRRRQAUUUUAFFFFABRRRQAUUUUAFFFFABRRRQAUUUUAFFFFABRRRQAUUUUAFFFFABRRRQAUUUUAFFFFABRRRQAUUUUAFFFFABRRRQAUUUUAFFFFABRRRQAUUUUAFFFFABXmXx6/5Eiz/AOwkn/ouWvTa8y+PX/IkWf8A2Ek/9Fy0AHwF/wCRIvP+wk//AKLir02vMvgL/wAiRef9hJ//AEXFXptABRRRQAUUUUAFFFFABRRRQAUUUUAFFFFABRRRQAUUUUAFFFFABRRRQAUUUUAFFFFAGL4M/wCRI0H/ALBtv/6LWtqsXwZ/yJGg/wDYNt//AEWtbVABRRRQAUUUUAFFFFAGL4M/5EjQf+wbb/8Aota2qxfBn/IkaD/2Dbf/ANFrW1QAUUUUAFFFFABRRRQAUUUUAFFFFABRRRQAUUUUAFFFFABRRRQAUUUUAFFFFABXmXx6/wCRIs/+wkn/AKLlr02vMvj1/wAiRZ/9hJP/AEXLQAfAX/kSLz/sJP8A+i4q9NrzL4C/8iRef9hJ/wD0XFXptABRRRQAUUUUAFFFFABRRRQAUUUUAFFFFABRRRQAUUUUAFFFFABRRRQAUUUUAFFFFABRRRQAUUUUAFFFFABRRRQAUUUUAFFFFABRRRQAUUUUAFFFFABRRRQAUUUUAFFFFABRRRQAUUUUAFFFFABRRRQAV5l8ev8AkSLP/sJJ/wCi5a9NrzL49f8AIkWf/YST/wBFy0AHwF/5Ei8/7CT/APouKvTa8y+Av/IkXn/YSf8A9FxV6bQAUUUUAFFFFABRRRQAUUUUAFFFFABRRRQAUUUUAFFFFABRRRQAUUUUAFFFFABRRRQBi+DP+RI0H/sG2/8A6LWtqsXwZ/yJGg/9g23/APRa1tUAFFFFABRRRQAUUUUAYvgz/kSNB/7Btv8A+i1rarF8Gf8AIkaD/wBg23/9FrW1QAUUUUAFFFFABRRRQAUUUyWWOCF5pWCRxqWZj2A6mgL2H0Vi2fii0vbiOOO1vUjmbbHcPARG59jW1STT2M4VIVFeLuFFFFM0Cis7WtW/se2hm8jzvNmWLG/bjPfofStGlclTi5OK3QUUVjL4ktjY3uoNE32S1l8tHU5Mx4BwOO5wOaG0hTqQh8T/AKRs0VS0rVbfWLIXVsHVdxUrIAGUjsQCapXHimyiu5LW3t7y9eE4lNrDvEZ9zmi6JdamoqTej2NqisxNfs5L6zs0WYveRGSNtuAAM9cnIPB7VWm8U2q2eoXVvDJMliQpc4VJGzjCtzn8qXMiXiKSV+b+rX/I3KKitpWntYpmjMbSIGKHquR0qWqNk7q4V5l8ev8AkSLP/sJJ/wCi5a9NrzL49f8AIkWf/YST/wBFy0DD4C/8iRef9hJ//RcVem15l8Bf+RIvP+wk/wD6Lir02gAooooAKKKKACiiigAooooAKKKKACiiigAooooAKKKKACiiigAooooAKKKKACiiigAoornvHXiH/hGfCd5fxn/SmHk2qjq0rcLj1xyfwoA6GivN/hnf63Z6/rPhjxDqE15d2sUNxG00hcgMoLAE9gWUfnTn8SeK/F3inUtM8K3Npp1hpL+VNdTxeYZZMkEAc8ZBx7DOeQKAPRqK8+1TxR4r8OR+H7LU10+W/wBQ1MWskkasUkiyoDAZGD836dK09F8ZXXiTxbdWekWcUuiWIKT6gzH55f7sfYjp+HPcZAOuooooAKKKKACiiigAooooAKKKKACiiigAooooAKKKKACiiigAooooAKKKKACiiigAooooAK8y+PX/ACJFn/2Ek/8ARctem15l8ev+RIs/+wkn/ouWgA+Av/IkXn/YSf8A9FxV6bXmXwF/5Ei8/wCwk/8A6Lir02gAooooAKKKKACiiigAooooAKKKKACiiigAooooAKKKKACiiigAooooAKKKKACiiigDF8Gf8iRoP/YNt/8A0WtbVYvgz/kSNB/7Btv/AOi1raoAKKKKACiiigAooooAxfBn/IkaD/2Dbf8A9FrW1WL4M/5EjQf+wbb/APota2qACiiigAooooAKKKKACoL2OCaymiumCwSIVkJbGARjr2qemTQx3ELwzIskbjDKwyCKBSV00clHJqXhS8sbNruO+065kEUSsMSICe3tz7j6VmSxXWtarqhk0x7+WGVo42+2iL7OBkDCnr656V19l4a0fT7kXNrYoko6MWZsfTJOPwovvDej6jcfaLqyR5T1YMy5+uCM/jWTg7HlywdWUeW+l9r36d2n+WhzN7HdXMPhqG+lYTPK8byRSgsRkD7wJ5xUqA6Fqeu22nF0ijs/ORCxba2ByM/U11D6Rp8htSbZR9jOYApKhD9Bx2708abaC9lvfJBnmTy5GJJDL6Y6U+RlfU5X5k9dNetuW35nB3OnWMHh7Sr6KZzdXM6NKTKT5hyc5HqDx+NaHiG2NvrE+qX0TXlkpVFeG42vaHjoM9ec1vJ4U0JCSunoCWD53NkEHPHPH0FS3Ph3SLy++23Fkkk+QSxY4OOmRnB/EUuR2M/qNTkaSXT00vrtr/WvU0VKugYcqwyK4/XlttOudN0exs5ngWX7VNBbqZHIB44J9c12VVl0+1TUH1BYv9JdAjSbifl9MdBVyVzvxFJ1Y2W/fy6/ecv4cvvK8Q6lZC3uLVLzNxBHcR7GB78f56VY8BSRLpE8JIFyk7GZSfmHTk/lW/NptpcX0N9JDm4gBEbhiMA/Q8/jVW98NaNqFybi5sUeU9WDMufrgjNSotHNDDVabTTTte3TR/J21/A57xMs974ks102ZfNks5BG6nOeGyAfU8jPatTw9HpmqeHraEWwUWzjzISSNsq9z68881qJo+nx3NvcpbKktshSEqSAinPGM47mnW2l2dndz3VvD5ctwcykMcMfXGcU1F3uVDDTjVdSVnfdeVl+q+4t0UUVZ3hXmXx6/wCRIs/+wkn/AKLlr02vMvj1/wAiRZ/9hJP/AEXLQA34GSJa+DLuO4dYXbUHZVkO0kGOPBAPbg16arq4yrBh6g5ryb4TaPaeJ/Cc13qYd5YLxoEKNtwgjQgYHuxrsm+H2kZBSe8QjoVkX/4movLscnPiV9hP5/8AAOporlP+EGWP/UazfR46fN3/AAxR/wAIlq0f+p8UXgAHCsGI/wDQqLy7C9tX60vxR1dFcp/YPiiL/VeIt+Bx5in/AOvR9h8bRfd1WzlA4AKDP/oH9aOZ9g+szW9OX4f5nV0Vym7xxF/yzspu3Yfj1FL/AGn40j/1miWrjPGxx/8AFmjm8g+trrCX3M6qiuU/4SPxHH/rfDUjc/wMf8DR/wAJjfp/r/DV9H+DHj8VFHOg+u0et18n/kdXRXKf8J7ap/x8aZexdz8g6fiRUifEDRXxuW6T/ejH9DRzx7jWOw/86Onorn08caA/3rt04/ihb+gqwnizQX6alGP95WH8xT5o9y1iqD2mvvRsUVnJ4g0Z+mqWg+syj+Zqwmo2Mn3L23b6Sqf607o0VSD2aLNFNV1cZVgw9jmnUzQKKKKACiiigAooooAKKKKACuD8ZeFtY8X+LdMtmaax0SwQzm7hkTe0/wDCFGSeMDkj+97V3lFAHl9v4X1vwz8UNJ1IXWoazbXkD291dSR7jEMfKGI7Z2nJ9DVTQtTf4Z+Itdstb069ayv7o3FreW8JkVgSeDjocEcdiD7V63RQB5J44mi8Z674Jtmt7uzhvnuGMcy+XKq5UA47HCkj6itj4VXz6dDf+Cr9I47/AEaViu1cedExyH9+SOfRlr0EorMrFQWX7pI5FRCytReG8FtCLkrsM3ljeV9N3XHtQBPRRRQAUUUUAFFFFABRRRQAUUUUAFFFFABRRRQAUUUUAFFFFABRRRQAUUUUAFFFFABRRRQAV5l8ev8AkSLP/sJJ/wCi5a9NrzL49f8AIkWf/YST/wBFy0AHwF/5Ei8/7CT/APouKvTa8y+Av/IkXn/YSf8A9FxV6bQAUUUUAFFFFABRRRQAUUUUAFFFFABRRRQAUUUUAFFFFABRRRQAUUUUAFFFFABRRRQBi+DP+RI0H/sG2/8A6LWtqsXwZ/yJGg/9g23/APRa1tUAFFFFABRRRQAUUUUAYvgz/kSNB/7Btv8A+i1rarF8Gf8AIkaD/wBg23/9FrW1QAUUUUAFFFFABRRRQAUUUUAUrvVYLS/tLFkkea6J2BADtA6k88Crtc1ETP8AEObf0t7IBPxI/wDijVDXfEN3YXNwYtdtllifCWUdsXDDPRnxwcdRUc1tWcLxahGU57Xa6dPVo7Sq1zqFrZzW8NxLse5fZENpO4+nA4/GsK61bUr/AFKx03T50s3nthcSzGMOVz2APH/66reIZLiwk0OXUJBcSQXDs7xJjeBjBx64octB1MWlFyitFbXpuvn1OvorF8N3d9qVo+o3VwjR3DEwwIBiJQSMEgZJpusalf2l4I7a+0aBNgO29lZXzzzgHpT5tLm3t4+zVS2jNyiszRL26vIpWurnTpyrAKbGQsB9c96qXWqXWneKobe4mBsLuE+WCoGx1684z/8Aro5la4OvFQU3s3Y3qK5fTPEN42nyX9za3l3HcTuLdLaAMY0HTOMfr6UnhDWJrzT4bS5g1CV2L5unUmM8njfnOe1JTTM44unKUYrr/wAD87nRi7tmuTbLcRGcDcYg43AeuOtQLqkB1htLKyLOIvNBYDa69ODmsCys7ex8fGC1iWKMWOcDudw5J6k+5qfXMw+LdDnT7zl4256jj/E0czsR9YnyczW0rP77fqdLRRRVncFeZfHr/kSLP/sJJ/6Llr02vMvj1/yJFn/2Ek/9Fy0AHwF/5Ei8/wCwk/8A6Lir02vMvgL/AMiRef8AYSf/ANFxV6bQAUUUUAFFFFABRRRQAUUUUAFRvDFLnzIkfPXcoNSUUBa5UfStNlz5mn2r567oVP8ASq7+HNFk+9pdsP8AdjC/yrTopWRm6VN7xX3GK/g/QJPvaco5z8sjj+Rqu/gXQW6QSp9JT/Wuiopcsexm8LQe8F9yOWb4e6QSCk94hHQiRf8A4mm/8IKsf+o1i9j9Pm7/AIYrq6KXJHsZ/UcP/Kcp/wAIlqsf+o8UXigdFYMR/wChUf2D4oi/1XiLfjp5in/69dXRRyIPqVLpdfN/5nKfYPG0X3dWs5QOAGUZ/wDQP60bvHEX/LOym7dh+PUV1dFHL5h9UXScvv8A8zlP7T8aR/6zRbVx22OP/izR/wAJH4jj/wBZ4akb/cY/4Guroo5X3D6tUW1WX4P9DlP+Exv0/wBf4ZvY/wDvrp+Kij/hPbVP9fpl7H3Pyjp+JFdXRRaXcPY4jpV/Bf8AAOXT4gaK+Ny3Sf70Y4/ImrCeONAfG67dP96Fv6Ctx4Ypc+ZEj567lBqB9K02XPmafavnruhU/wBKLS7hyYpbTT+X/BKSeLdBk+7qUY4z8ysP5ip08QaM/TVLQf70yj+Zpr+HNFk+9pdsP92ML/KoH8H6BJ97TlHOflkcfyNHvh/ta/l/H/gmimo2Mn3L23b6Sqf61Orq4yrBh7HNc+/gXQW6QSp9JT/WoG+HukEgpPeIR0xIv/xNF5dg58Ut4J/P/gHU0Vyn/CCpH/qNYvY+4+bv+GKP+ER1WP8A1Hii8XHRWDY/9CovLsHtq63pfijq6K5T+wPFEX+p8Rb8dPMU/wD16PsHjeL7urWcoHQFRn/0D+tHM+wfWZrenL8H+p1dFcpu8cRfwWU3bsPx6ij+0/Gkf+s0W1f0KOP/AIujn8g+trrCX3M6uiuU/wCEj8Rx/wCs8NSN/uMf8DR/wmV+n+v8M3sf/fXT8VFHOg+u0et18n/kdXRXKf8ACfWsf/Hxpl7F6/KOn4kU9PiDor43JdJ/vRjj8jRzx7gsdhv50dRRXPp440B8brp0/wB6Fv6A1Oni3QZPu6lGOP4lYfzFPmj3NFiqD2mvvRs0VnJ4g0Z+mqWg4/imUfzqwmpWEn3L23b6Sqf607o0VWD2aLNFNV0f7jBsehzTqZoFFFFABRRRQAUUUUAFFFFABRRRQAV5l8ev+RIs/wDsJJ/6Llr02vMvj1/yJFn/ANhJP/RctAB8Bf8AkSLz/sJP/wCi4q9NrzL4C/8AIkXn/YSf/wBFxV6bQAVR1bVYNGsTeXCSPGGC4jAJyfqRV6uc8d/8i22P+eyfzqZOyuYYibp0ZTjukWrTxPaXN7HZy2t5ZzSj92LqHZv+nJrZrjl+2T+LNOi10wo0UZe0Fsp2SN3yWOc8dP8AJzZYrrWtV1QyaY9/LDK0cbfbRF9nAyBhT19c9KjnZxLGTitVd3sunS+qVz0OiuHunvLm18P6bqcxEdw7LcMkoPmYOFBYHB/OrHiOKPRNC+x6VI6RS3SpKgn5QEZKhj90HA6+tVz9TV4z3ZS5dEvndq+x156VS0m/uNQtWmuLCWydZCojk6kDv0Fc3otje2GvQNDpn9m2k0bCWI3qy+ZgZDAZznpWZbwOPCA1GEZlsL8zD6ZGf6flS52ZvGT0ly7XuvS3dJ9fI9ForjI7x9R1PVtctTuSys/Ltj23bck/gc1k2lpqEljbanZ6ey3W8O2oPqCnzOeQVJH0x1o5ypY63wxvv32TtfRP/LzPSazzqqHWv7Mjj3mOIyzSbsCMdh05JrmPEFsbfWJ9UvomvLIbEV4bja9o3HQeuTmtTxJ9m03TLvULWIi9v1WAOCSXzwOPXGe1PmZUsTL3tLcu/drXy62/pl3SPEljrVxLBbLKjxDd+8UDeM4yME8f40/U9fs9Lmjt3Wae5kGUgt03uR64rk4rxdN1fR7ldPvrSKOIWk73MHlq+ehBz65P4Vq2TxxfEPUBcsFklhUQFu4wuQPy/Q1Kk7GUMVOUVFtc17X9Vf8A4BoS+KbODT2vJba7jCSiJ4ni2yKSMjIJ6fjVqTWbZNXj0tUlluHTe2wArGvqxzx/+r1rH8dSI+hbEkUulwm4A5K8HqKb4cVI9Q1TTdRXOoSsWeUkjzoz0x6Aeg9fanzO9i3XqKt7K/bX79PV2/M2dE1b+2bJroW5hUSsi5bduA7g4rRqK3t4bS3jt7eMRxRrtVR2FS1avbU7qakopSd2FFFFMsKKKKACiiigDF8Gf8iRoP8A2Dbf/wBFrW1WL4M/5EjQf+wbb/8Aota2qACiiigAooooAKKKKAMXwZ/yJGg/9g23/wDRa1tVi+DP+RI0H/sG2/8A6LWtqgAooooAKKKKACiiigAooooA5u6B0/x1a3TcRX8Bgz/tjkfyFMn8HyuLyGDVpILS8cyPD5Ksd3X72c4z2rp6KnlRyvCwlfm1Td+2++3cwrrw28klnc2eoNaXlrCIfOEQYOoGOVNPl0CSdtOefUHmkspjKzyICZCT06/KPzraoo5UV9Wpa6b+b/roZekaL/Y9xd+RcZtZ38xINmPKPfBz0/DsKtXGm2F3J5lzY2874xukiVjj0yRVqinZWsaRpQjHlS0ILaytbNWW1toYAxywijC5/Kue8exxyaRb9ftP2hVg29ST1H+fauoopNXViK1FVKTprS5W0+zSx06CzQYWKML9eOTUemaZDpOnrZWzyFFJIaQgnJOewFXaKdkaKnFWsttDml8M6quqDUj4gzcbPLLfY15XPTGcUXo/tDxxZQrymnwtLIfQt0H8jXS0UuVGH1WCVo7XTerd7erCiiiqOoK8y+PX/IkWf/YST/0XLXpteZfHr/kSLP8A7CSf+i5aAD4C/wDIkXn/AGEn/wDRcVem15l8Bf8AkSLz/sJP/wCi4q9NoAKKKKACiiigAooooAKKKKACiiigAooooAKKKKACiiigAooooAKKKKACiiigAooooAKKKKACiiigAooooAKKKKACiiigAooooAKKKKACo3ghlz5kSPnruUGpKKBNXKj6TpsufM0+1fPXdCp/pVd/Dmiyfe0u2HP8MYX+VadFKyIdKm94r7jFfwfoEnXTlHP8Mjj+Rqu/gXQW6QSp9JT/AFroqKXLHsZvC0HvBfcjlW+HujnBWa8Qj0kX/wCJpP8AhBUT/Uaxex9x83f8MV1dFLkj2M/qOH/lOU/4RHVY/wDUeKLxcdFO7H/oVH9geKIv9T4i346eYp/+vXV0UciD6lR6XXzf+Zyn2DxvF93VrOUDoCoz/wCgf1o3eOIv4LKbt2H49q6uijl8w+qLpOX3nKf2n41j/wBZotq47FWH/wAXR/wkfiSP/WeGnb/cJ/wNdXRRyvuH1aotqsvwf6HKf8JlqCf6/wAM3sf/AH10/FRR/wAJ9bR/6/TL2P1+UdPxIrq6KLS7h7HEdKv4L/gHLp8QdFfG5LpP96Mf0NWE8caA+N106f70TcfkDW48EMufMiR89dyg1A+k6bLnzNPtXz13Qqf6UWl3DkxS2mn8v+CcxrviOG4EN1ouuRxyQ5LQOpVZR+I6/X9K4n4o+Ix4k8D28C27pdwXqSyogyuwJICwPpkj867nxBocstxHZ6RodmqyLue6KKAh9MdvyPWuH+JWgSeE/B0F5Deu13PeJC7IMKFKOSB3zlRzUe/zHHH659YfLt13t8r/AKG18Bf+RIvP+wk//ouKvTa8z+AxJ8EXpPJOpyf+i4q9MrY9gKrX+n2up232e8i82LcG27iOR06GrNFAnFSVnsVLvS7K+e3kuYd72zbomDFSp+oPsKrX3hvR9RuPtF1ZI8p6sGZc/XBGfxrUqld6rBaX9pYskjzXROwIAdoHUnngUml1MqkKVrzS1t0+SC50fTruySyns42t0+4gG3b9MdKbDoemQWD2EdnGLZzlkOTuPqSec1foosivZU735VfbYzdP8P6Vpcpls7NY5CMbixYj6Ek4qWDSLC2sZbGG3C2827ehYnOevJOakudQtbOa3huJdj3L7IhtJ3H04HH41ZoshRp0l7sUtP1/zKmn6XZaXbNb2UAiiZixXcWyfxJqmnhbQ47oXKadGJAcjk7Qf93OP0rXoosgdGm0k4rTbTYzLnw7pF5ffbbiySSfIJYscHHTIzg/iKtXWn2t7JBJcReY1u++L5iNreuB1/GrNFFkP2VNX91a76Fa/wBPtdTtjbXkXmxZDbdxHI9xzUN/oum6pGiXtqswjGFJJDAfUHNX6hF3bNcm2W4iM4G4xBxuA9cdaGkEoU38SWv4lEeG9HFj9iFkogLhyoZgSw6EnOT+dWZtLsp7+G+khzcwDEcgYggenB56nrTV1SA6w2llZFnEXmgsBtdenBzV2hJExhSa91LTy7f5BRRRTNgooooAKKKKACiiigDF8Gf8iRoP/YNt/wD0WtbVYvgz/kSNB/7Btv8A+i1raoAKKKKACiiigAooooAxfBn/ACJGg/8AYNt//Ra1tVi+DP8AkSNB/wCwbb/+i1raoAKKKKACiiigAooooAKKKKACiiigAooooAKKKKACiiigAooooAKKKKACiiigArzL49f8iRZ/9hJP/Rctem15l8ev+RIs/wDsJJ/6LloAPgL/AMiRef8AYSf/ANFxV6bXmXwF/wCRIvP+wk//AKLir02gAooooAKKKKACiiigAooooAKKKKACiiigAooooAKKKKACiiigAooooAKKKKACiiigAooooAKKKKACiiigAooooAKKKKACiiigAooooAKKKKACiiigAooooAKKKKACiiigAooooAKKKKACiiigAooooAK8y+PX/IkWf/YST/0XLXpteZfHr/kSLP8A7CSf+i5aAD4C/wDIkXn/AGEn/wDRcVem15l8Bf8AkSLz/sJP/wCi4q9NoAKKKKACuaiJn+Ic2/pb2QCfiR/8Ua6WubugdP8AHVrdNxFfwGDP+2OR/IVMuhy4naD6cy/r7zP13xDd2FzcGLXbZZYnwllHbFwwz0Z8cHHUVeutW1K/1Kx03T50s3nthcSzGMOVz2APH/66SfwfK4vIYNWkgtLxzI8Pkqx3dfvZzjParV14beSSzubPUGtLy1hEPnCIMHUDHKmotI41TxV5XvbTr56217ehm+IZLiwk0OXUJBcSQXDs7xJjeBjBx64rV8N3d9qVo+o3VwjR3DEwwIBiJQSMEgZJol0CSdtOefUHmkspjKzyICZCT06/KPzqbSNF/se4u/IuM2s7+YkGzHlHvg56fh2FNJ81zWnSqxr81nyvz8lq+/b8SvrGpX9peCO2vtGgTYDtvZWV8884B6VZ0S9uryKVrq506cqwCmxkLAfXPerNxpthdyeZc2NvO+MbpIlY49MkU+2srWzVltbaGAMcsIowufyqrO50Rp1FV5m9DIutUutO8VQ29xMDYXcJ8sFQNjr15xn/APXVXTPEN42nyX9za3l3HcTuLdLaAMY0HTOMfr6UePY45NIt+v2n7QqwbepJ6j/PtW/p9mljp0FmgwsUYX68cmp15rHOlVdeUVLRa/f0+Vn95z/hDWJrzT4bS5g1CV2L5unUmM8njfnOe1MsrO3sfHxgtYlijFjnA7ncOSepPua39M0yHSdPWytnkKKSQ0hBOSc9gKx18M6quqDUj4gzcbPLLfY15XPTGcUWdkS6VWNOmmuZprtp97DXMw+LdDnT7zl4256jj/E10tc1ej+0PHFlCvKafC0sh9C3QfyNdLVR3Z04f46jW1/0VwoooqjqCiiigAooooAKKKKAMXwZ/wAiRoP/AGDbf/0WtbVYvgz/AJEjQf8AsG2//ota2qACiiigAooooAKKKKAMXwZ/yJGg/wDYNt//AEWtbVYvgz/kSNB/7Btv/wCi1raoAKKKKACiiigAooooAKKKKACiiigAooooAKKKKACiiigAooooAKKKKACiiigArzL49f8AIkWf/YST/wBFy16bXmXx6/5Eiz/7CSf+i5aAD4C/8iRef9hJ/wD0XFXpteZfAX/kSLz/ALCT/wDouKvTaACiiigAooooAKKKKACiiigAooooAKKKKACiiigAooooAKKKKACiiigAooooAKKKKACiiigAooooAKKKKACiiigAooooAKKKKACiiigAooooAKKKKACiiigAooooAKKKKACiiigAooooAKKKKACiiigArzL49f8AIkWf/YST/wBFy16bXmXx6/5Eiz/7CSf+i5aAD4C/8iRef9hJ/wD0XFXpteZfAX/kSLz/ALCT/wDouKvTaACiiigAooooAKKKKACiiigAooooAKKKKACiiigAooooAKKKKACiiigAooooAKKKKAMXwZ/yJGg/9g23/wDRa1tVi+DP+RI0H/sG2/8A6LWtqgAooooAKKKKACiiigDF8Gf8iRoP/YNt/wD0WtbVYvgz/kSNB/7Btv8A+i1raoAKKKKACiiigAooooAKKKKACiiigAooooAKKKKACiiigAooooAKKKKACiiigArzL49f8iRZ/wDYST/0XLXpteZfHr/kSLP/ALCSf+i5aAD4C/8AIkXn/YSf/wBFxV6bXmXwF/5Ei8/7CT/+i4q9NoAKKKKACiiigAooooAKKKKACiiigAooooAKKKKACiiigAooooAKKKKACiiigAooooAKKKKACiiigAooooAKKKKACiiigAooooAKKKKACiiigAooooAKKKKACiiigAooooAKKKKACiiigAooooAKKKKACvMvj1/yJFn/ANhJP/Rctem15l8ev+RIs/8AsJJ/6LloAPgL/wAiRef9hJ//AEXFXpteZfAX/kSLz/sJP/6Lir02gAooooAKKKKACiiigAooooAKKKKACiiigAooooAKKKKACiiigAooooAKKKKACiiigDF8Gf8AIkaD/wBg23/9FrW1WL4M/wCRI0H/ALBtv/6LWtqgAooooAKKKKACiiigDF8Gf8iRoP8A2Dbf/wBFrW1WL4M/5EjQf+wbb/8Aota2qACiiigAooooAKKKKACiiigAooooAKKKKACiiigAooooAKKKKACiiigAooooAK8y+PX/ACJFn/2Ek/8ARctem0UAeZfAX/kSLz/sJP8A+i4q9NoooAKKKKACiiigAooooAKKKKACiiigAooooAKKKKACiiigAooooAKKKKACiiigAooooAKKKKACiiigAooooAKKKKACiiigAooooAKKKKACiiigAooooAKKKKACiiigAooooAKKKKACiiigAooooAKKKKACvMvj1/yJFn/2Ek/9Fy16bRQB5l8Bf+RIvP8AsJP/AOi4q9NoooAKKKKACiiigAooooAKKKKACiiigAooooAKKKKACiiigAooooAKKKKACiiigAooooAxfBn/ACJGg/8AYNt//Ra1tVi+DP8AkSNB/wCwbb/+i1raoAKKKKACiiigAooooAxfBn/IkaD/ANg23/8ARa1tVi+DP+RI0H/sG2//AKLWtqgAooooAKKKKACiiigAooooAKKKKACiiigAooooAKKKKACiiigAooooAKKKKACiiigAooooAKKKKACiiigAooooAKKKKACiiigAooooAKKKKACiiigAooooAKKKKACiiigAooooAKKKKACiiigAooooAKKKKACiiigAooooAKKKKACiiigAooooAKKKKACiiigAooooAKKKKACiiigAooooAKKKKACiiigAooooAKKKKACiiigAooooAKKKKACiiigAooooAKKKKACiiigAooooAKKKKACiiigAooooAxfBn/IkaD/2Dbf/ANFrW1WL4M/5EjQf+wbb/wDota2qACiiigAooooAKKKKAMXwZ/yJGg/9g23/APRa1tVi+DP+RI0H/sG2/wD6LWtqgAoqC+vItPsLi9nJENtE0smBk7VBJ/QV43efG7xBeySSaB4cjNtGeXmSSY499hAXt60Ae10V5P4K+NLa3rFvpOt2MNtJdOI4p7cnZvPAUqckZPGc9x9a9YoAKKK8qh+LepJ8RD4bvtNtYbb7ebTzAW3j5tqtknHPB6d6APVaKZLKkELyyMFSNSzE9gOteP6B8b77VfFFnp91plrDZ3dwIQ6s29NxwpJzjqRnigD2OikZgilmICgZJPavMvA3xS1Lxh4vfS/7Nt47IRySCRS29VBAUnJxySB070AenUUUUAFFFFABRRRQAUV5drXxX1HTPiL/AMI3Hptq9qLqKAyMzbzv25Pp/F6dq9RoAKK8um+K+oxfEoeGBp1qbU3y2nmFm34LAbvTv0xXqNABRRRQAUUUUAFFFFABRXn/AMZNd1TQPC9pcaTeSWk0l6sbPHjJXY5x+YFanwx1S+1nwFYX2o3L3NzI0oaV+pxIwH6AUAdZRRRQAUV4j8OfFviDVPibJY32rXNxav5+YXbKDbnGB2/CvbqACiiigAoorzL416/q2h6Xph0q/ms2nmcSNC20sABgZ/GgD02iud8A391qfgbSr2+nae4lhzJI3VjuI5/KuioAKK8jfxj48/4Wn/ZK2kn9l/b/ACfK+yfL5G7G/fjP3fmznFeuUAFFFFABRRRQAUUV4b4p13VPFfxet9A0vUru1tYJ1tW+zzMmdpJlbg9Rhh/wEUAe5UVz/jnxG/hXwle6tEivPGAkKsON7HAJ9hnP4V5L4TuPif4qkXWrLVp5LWK5CyB5lRG5BYBOhGD6UAe9UUUUAFFFFABRRRQAUVymg/Ejw/4k12TRtPa5NygYgyRbVYL1wc/zxXV0AFFFFABRRRQAUUUUAFFFFABRXJfErWdd0Pwr9r8PRM90Z1R2WHzDGhBy2MEdQo5Hem/DPWdf1zwu134iiZLkXDJG7Q+WZEAXDbcAdSw4HagDr6KKKACiiigAoorI8S+JtO8KaSdS1MyCDzBGBEm5ixzgY/A0Aa9FZXhzxFYeKdITVNNMnkOxXEibWBHUYrhfin4q8Y6DrFjb+HopFtZIN7yJaiXe+4gqSQcYAXpzzQB6fRVLRp7y60SxuNQh8m8lto3njxjY5UFhjtg5q7QAUUUUAFFFFABRRRQAUUUUAFFFFABRRRQAUUUUAFFFFABRRRQAUUUUAFFFconxI8PyeLT4ZVrn7cJjDnyvk3jqM5z+lAHV0VT1ae6ttGvbixi866it5Hgjxne4UlRjvk4rzv4W+KvGeva3eW/iCKRrNIC6yPaiLY+4AKCAM5BbrzxQB6hRRRQAUUUUAFFFIeRigBaK8N8Ia9qvhb4s3Hh7VdSuru2nma1H2iZnwScxPyep4H/Aq9yoAKKKKAMXwZ/yJGg/9g23/wDRa1tVi+DP+RI0H/sG2/8A6LWtqgAooooAKKKKACiiigDF8Gf8iRoP/YNt/wD0WtbVYvgz/kSNB/7Btv8A+i1raoAZNDHcQSQTRrJFIpR0YZDKRggj0rnLjxj4M8NRPYnVLC0W0yhtoMZjI6rsUdfbFdNXA6x8G/DOs6jd6hLNfxXF3K0rmOVcBmOTgFT3oA8n0TT5vGvxRN5pFnJHZtqH2p2C4EMYfdkkcAkdvU19LV8zXlzrfws8az6fp+pySR20ivsyRHOjKDhk6Zwce3avXPHlz41vNK0i68GLIgnUyXKp5e4AqpQfP9W6e1AHe188fGWwk0b4hrqUHyG7ijuEYdnX5T/6CD+NdV4V/wCFtf8ACTWP9s+f/Z3m/wCk+Z5O3Zjnpz+VWPj1pP2jw9p+qquXtLgxMR2Vx/io/OgDo/HPiGOP4WXmrQttF9ZosXPP70AcfgxP4V86yadeadp2naxyiXckhgYesZAJ/M113iHxP9t+EXhzSd+ZUuJFlAPQRcKD+Ei/lXUePPC32L4L6HhMS6Z5ckvt5o+cf99stAHc+J/EaL8LLvXY2C/atODR47NKoUfkWrg/gbYmy0nXfERhMpRfJiVerbV3sB9cpXO6p4o+0/BPStJ8zMy37wuM8lIxvH/oxPyr1XwHHbeEfhXaXl8THGtu17OwHOG+Yceu0qKAOMTxN8X/ABN/pejaZ9htmOUAhiQEfWbr9RUnhP4o+JbXxfF4c8XQozzTrbs3lBJIpGwF+78pBJHbvnNPtPid458XXs8fhHw9bGCH7xlO4jOcZYsqgnHT+dcLrLa4fihbv4iSOPVPtVt5oixtH3NuMcfdxQB3Hif4keJvC3xJfT7yaI6Ss8beWIBkwNjJDdcjn8RXp3ifW00Dwvf6xlW+zwF489Gc8IPoWI/OvN/j1oHnWFh4giTLW7fZ5yB/A3Kn6A5H/Aq5jxP44/tX4SaHpQlzdGUxXQzzthA25+u5D9QaAO7+Eni3xJ4tbUp9YniltbfYsZWEId5ySAR2AH6ivSq5D4W6H/YXgKwjdNs12PtUv1fkfku0fhXX0AfNvja5hs/jRcXVw+yGC/gkkbBOFAQk4HPQV6//AMLd8Cf9B3/yUn/+Irx/x1aR3/xkurObcIri+gifacHDBAcfnXpv/CjPCP8Az01H/v8Ar/8AE0AeYQ6ha6r8ara/sZfNtrjWI3ifaV3KXHOCARXs3xD8T6z4c0+0TQdMN9e3spjT92zhMDP3V6n/AArxWz0u30X4yWmmWpcwWurxRxlzlsBx1Ne0fEL4g2/ge0gC232u+us+VEW2qAOrMfxHHegDgL7W/jPptjLq15G0VnGu9x5Nudi+pUfPgV3Xwy8eS+NtLuftkMcV9ZMol8oEI6sDtYA9D8pyPb3rjb7xB8U9e8MXl2+j2VtpU9pI0j7VUmIoc4DOW+7kjiq/7P5P9qayM8eRF/6E1AE2sfFzWtA8f6laXOy4021kkjS2WNVJIX5Pm6/exn2zxWVqXxH+JtgI9Wu4HsrG4b90kliBEfQAsN3T1PNVZoYrj4+NFNGskbavyrjIPPpXqnxgjV/hlqjMoJQwsp9D5qD+RNAGl4F8WJ4y8Mxap5QhnVzFcRqchZBgnHsQQfxxXmvif4t+IdR8SPo/g+MBUkMMciRCaSdgeWUEEAcccdOfpf8AgzJJF8PNeeLJdJpGQe/lLiud+A8UD+M7t5ADLHYsYs9sugJH4HH40AZnjjxb4o1HR4dA8V6c0F3DcLcRzNF5RddrLjHQ8nqPQivT/hvqkGifBuDVLkMYrRLiRgvVsSPwPc9KofHyOM+FNOlKKZVvgqvjkAo+Rn04H5Cr/wAONKh1z4MwaXcErFdpcRsw6rmR8EfQ80AcnpvjP4oeOJrm48NrBbW0DAFUSLC56DdJkk/T9K9E8A6l4qvrC7i8WWP2a7tpgiP5e0SqRnPHynnuOK8lk0Px/wDCq5nvNPLSWGcyTQr5kLqOhdTyv149jXqPw4+IK+N7KdJ7dba/tNvmohJRwc4Zc8joeOcevNAHh/h/xHL4W8a3Gp29p9rnDzRxREkAsxIGccn6DrXTXvxL+JOgXkNxrEBgim+ZLe4shGjgdQDgN39ciqvwuhim+LY82NX2NcOu4Zwwzgj3ruvj3Gp8GWMhUb11FVB9AY5M/wAhQB2ukeJIdZ8IReIbWFmWS2aXyQcncudyZxz8wIzivME8TfF/xN/pejaZ9htmOUAhiQEfWbr9RXTfC7UrfSfhHDqN45W3tfPkcgZIAdjwPWsC0+J3jnxdezx+EfD1sYIfvGU7iM5xliyqCcdP50AM8J/FHxLa+L4vDni6FGeadbdm8oJJFI2Av3flIJI7d85qx+0B/wAgrRv+u8n/AKCK4DWW1w/FC3fxEkceqfarbzRFjaPubcY4+7iu/wD2gP8AkFaN/wBd5P8A0EUAXLDxnb+DPg1pF18kl7NAyWkLfxNuOSf9kdT+A71d+FmueMfEkdxquuyxHTWXbbDyQjO+eWGP4RyOep+hrxXVrfUrSDQbzVFN1p8lsrWqZKqY1c748joc5z/vA19OeHdQ07VfD9leaSFWykhHlIoAEYHG3A6EEYx7UAeZ/wDCxfEX/C3f+Ee8+H+zvt/2fyvJGdvT73XNbnxc8X6x4S07TpNHmjhe5ldXZ4w/AAxjP1rzv/m4D/uL/wBa6n9oD/kFaN/13k/9BFAGVcfE7x14kgQeFtNmRLaJPtNxDaiVnk2jd1BVRnOB1xW18MPilqPiDWv7C14RvcSozW86JsJKjJVgOOgJzx0rq/hdDFD8OdI8uNU3xF22jG5ixyT715J4aRYfj48cY2qmq3aqBxgfvBigD0X4mfEe68KXNto+j26TandIH3SKWEaklVwB1YkH6Y75rjtd8UfFvwvZx3+ryJFbzsFU+TA4RsZwdoyPx9KT4yp9m+IWlXmmy+fqPlRn7KqFmV1fKcDruzjHXj3qHxT4v8VfEPT4dAtfCs9uwlV5tqsxZgOOSoCDnPPtzQB23w78TeKtR0HUta8SCOSxSDzrSZVRd+3fvGF9No61wnwQt21Dx7d6hcHe8NrJIXPXezKM/kWr0210Cbw38ILrRndWuIdLuN5XoHZXY4+hbH4V578ASv8Ab+qj+I2q4+m7/wDVQBY+Nl/4n+0yWLQOPD/7pklEQ2mTB4L+uc8Vm/CvVPGsE+n2emWkkmhSXo+0SfZwVAJG8l8cYHvXefG//kn5/wCvuL/2aj4If8k/H/X3L/7LQBmePvi1daVrLaB4btknvI3EcszqX+c/wIo6ntn14xXPaj4x+LXhqNNS1iIraMwAEttEUyegJTDD8SKy/h/tuvjSkl8o803VzIVb/nptc/mDz+Fe0fEJIZPh/ri3ABQWbkZ/vAZX/wAeAoATwL4xg8aaAt+kaw3MbeXcQhs7G9R7Ecj8u1eURfGnxFZ3uqRXIhumO6OzQQhRG+/AJxyRtzx3OK0/2fTN5mugD9ziDP8AvfPj9M/pXN/DO0t7z4sqtxEsoiknlQMMgMucH8DzQB6N8Ltc8Z6teainiqK5SNI0eAz2Yg6k5xhRkfnXQ+Pr3xFYeGmn8MQNNf8AnICqRCRgnOSF79q6WigD5R8K33iOy8Rm48PQyS6ntfKJCJDg/e+XFe7ad4u1TQ/hy2veMLdo76NmUQlBE8p3YQY7E/ToM15h8IP+Sot/1znrsPj88g8PaXGP9U12xb6hDj+ZoAyrDxZ8VvGUc+oeH4YbayRyqhUiAP8AsgyZLH3H6VufDr4nX+ta0/hvxHAkWorvEcoXYWZfvIy9m4J49Olc/wCC5PienhOxHh62sG0zD+QzmPcfnbdnJz97NS6B4A8bH4i2viTWLW3h/wBJ864eOZMdOcKD3/rQBs/Fbx5rnhLW9OttLmijhlh8yUPEHLfNjHPbA7VhQfEnxz4i8Sw3Gi2VxHohu0iKx2QkXYWAO99pwcHnBGKg+P3/ACMel/8AXof/AEM17B4VtLex8KaXb2sSxRLaRkKo7lQSfqSSaAPOfHPxM1nwt8REsEkQ6VCInmhWJS7qRlsE9/Sue1X4l/EeaD+3be1k07SGYCMi0VoyM8ZdlJOemRgHtVT4sIsnxY2OoZWFuCCOCMCvYviDFGvw61mJY1EaWbbVAwBjGMD2wKAPOU+NGv6vpVtp2jaP5uuykrI8cZdcDoyJ6+ueBjvniponxZ8WaL4kj0/xYPMh8wR3Cy26xSQg4+YbQOgOenI/OtH9n2GIjXJzGplXyFV8cgHeSM+nA/IVg/HVVXx3CQAC1hGT7ne4/oKAPVfid4i1Hwv4RbUNLkSO4M6RhnQNgHOeDx2o+GHiLUfE/hFdQ1SRJLgTvGWRAuQMY4HHesj40nPw5Qnk/aYv5Gn/AAQ/5J+P+vuX/wBloA4q0+NPiGz1PUobuKO+JLR2cKxBQsm8AZI5IxnjqTjpVe8+JXxK8P3kM+sxNDFOd8dvc2Sxqw7gEAN39ciq3wuhim+LY82NX2NcOu4Zwwzgj3ruvj3Gp8GWMhUb11FVB9AY5M/yFAHa6R4kh1nwhF4htYWZZLZpfJBydy53JnHPzAjOK8wTxN8X/E3+l6Npn2G2Y5QCGJAR9Zuv1FdN8LtSt9J+EcOo3jlbe18+RyBkgB2PArAtPid458XXs8fhHw9bGCH7xlO4jOcZYsqgnHT+dADPCfxR8S2vi+Lw54uhRnmnW3ZvKCSRSNgL935SCSO3fOaq/G6+8Sm8eykt2GgBonilEQ2mTaer+v3uPauS1ltcPxQt38RJHHqn2q280RY2j7m3GOPu4r1b45/8iFH/ANf0f/oL0AcB8PNY8fWtvZWuh2csukNdDe32UMnLDfl8ZH58V2Xxa8ea94T1ewtdInihjmgMj7olck7iO/bitP4J/wDJPIv+vmX+Yrifj9/yMel/9eh/9DNAHp3iHXr7T/hvNrtuyLeLZRzAlcqGYLnj8TXmGnfF7xfqelJpenWf27W5ZWPnx24bbHgYwg4znOSRgDHWu98Xf8kXn/7BsP8AJK5n9n+GL7DrM/lr5vmxpvx823BOM+lAGRovxb8V6J4ijsPFq+ZDvCXCy26xSQg4+YbQM4HOMcj869T8deLovBfhx9SaHz5nkENvETgM5BPJ9AAT+nevIfjxGqeObVlUAvp0bMfU+ZIP5AV2Pxphtpvh/YSzXSxzxTRtCh5MxKkMB+Bzn296AMBfE/xcv9FbxJbJHHpoRpAscMPKDqQrZcgVe+G3jXx14p8QxfaJIrnS4mK3jCONDHlWKnjB6isXT/iL4mtfBcXhuHwzNJM9r5MF0I35iIwCE28nBGDnHTiu1+Dfg/UPDOj3t3qkJt7jUHTEDfeREzgn0JLHj2FAHo9eUfEH4r3+l623h7w1Akt3GwSWcp5h3n+BF7nkevPGK9Xr5z+Hai5+MsTXwDS/ablyG5/ebXP555/CgDo7Hxj8UNC1SyfxFp8k9jdTpE3mWyLt3MBw0YGG54DV2nxF+IkPgi1ihggW51G5UmKNjhUUcbm74z274PIrta+d/jQ7S/EjZcfLElvCqn/Y5J/UtQBpL4r+L99po1u2hkWw2+YPLtIsMvqFILke4rsPhj8TZPF0sul6rHDFqMSeZG8XyrMo68How/X2xXocSRxRJHEqrGqgIqjgAdMV87+BlEXxuRLBR5K3t0qgdBHtk/pQB1/jn4maz4W+IiWCSIdKhETzQrEpd1Iy2Ce/pWBqfxJ+JE8B161s5LDSM/JizDx4zwS7KSfTIwM1S+LCLJ8WNjqGVhbggjgjAr2vxnBF/wAIFrkQjURpps+1QOF2xkjA9sCgDI+Gfjl/GujTNdxpHf2TKk4j+64IO1gO2cNx7e9cTrHxc1rQPH+pWlzsuNNtZJI0tljVSSF+T5uv3sZ9s8U39n0n7brgzx5cP83rCmhiuPj40U0ayRtq/KuMg8+lAFrUviP8TbAR6tdwPZWNw37pJLECI+gBYbunqea9c8C+LE8ZeGYtU8oQzq5iuI1OQsgwTj2IIP44rN+MEav8MtUZlBKGFlPofNQfyJrl/gvJLH8PtdeHJkSeRkH+15S4/pQAniD4oeINX8Ut4d8D2scjxuyeeQrmUjqRn5VUc8nrWfN8QfiD4G1aCPxfbx3ltOMgbY1LKOuxoxjI9D6+4Nch8Nm8ULrty3hOK3kvRbHzPP28R7lzjcR3211vijwt8UvF9vBBq1hZOtu5aPy5YlIJGD3oA9eudf0628Otr7zg2C2/2gSD+JSMjHucgY9TXjY+JXxC8X6lMnhWz8iGPny4YUkKL23O4xk/hW34607UND+Btjpl1jz4WhjuArZAGSQM98HbV/4DxQr4KupEA8175xIe/CJgfr+poAq6D4y8eXmja9p15prDXNPt0kt2Nvtd9zYOV6E4BIwMHHevJ4r7xGPHBvY4ZDr32pnMfkjd5vORsx9eK+rq+eLX/k4Bv+wvJ/M0Aem+DtZ8Xy+E9XvvE1s0N3bB2t/NgEZYBM8qMZGf61i/CXx5r3izV7+11e4imjhgEibYlQqd2O31r0TxB/yLmp/9ekv/AKAa8Z+AP/Ix6p/16D/0MUAdh8Sfij/wiU40nS4En1JkDu8nKQA9OO7Ec4+nWuPu/FfxfsLAa1dQyRWAAchrSLaqn+8MbwOe+KytY23fx523yjY2rQoVboVBULn2IAr6B1JIZNLu47kAwNA4kB6bdpz+lAHKfDbx+vjbTpluYo4NRtSPOjjPyup6OoPOOxHOPxritY+LmtaB4/1K0udlxptrJJGlssaqSQvyfN1+9jPtnisf4EGb/hOLnyx+7+wP5n03pj9cVBNDFcfHxopo1kjbV+VcZB59KALWpfEf4m2Aj1a7geysbhv3SSWIER9ACw3dPU81654F8WJ4y8Mxap5QhnVzFcRqchZBgnHsQQfxxWb8YI1f4ZaozKCUMLKfQ+ag/kTWD8Ayf+EV1EZ4+3f+yLQByPxqgfS/iJbalb/JJNbRThx/fRioP5Kte92dyt5ZQXUfCTxrIv0Iz/WvD/j8y/8ACRaWv8QtCT9N5x/WvYvDAZfCmkK/3hYwg/XYKANSiiigDF8Gf8iRoP8A2Dbf/wBFrW1WL4M/5EjQf+wbb/8Aota2qACiiigAooooAKKKKAMXwZ/yJGg/9g23/wDRa1tVi+DP+RI0H/sG2/8A6LWtqgDM8SWl/feHNQtdLnMF9LAywSByhVu3I6fWvIP+Ei+MWjoLObTLu6ZPlEn2ETn/AL6QEH6mvVfF134ms9Kik8K6dbX96ZwskdwwCiPa2Ty685Cjr36Vx/8Abvxk/wChT0j/AL+r/wDH6AOM0P4Y+K/F3iE6n4oSa1glkD3Ms5Cyyj+6q9uMDkAAdOmK9+VVRAigKqjAA7CvNP7d+Mn/AEKekf8Af1f/AI/R/bvxk/6FPSP+/q//AB+gD02sLxtor+IfB2p6ZEgeaaEmFc4y6ncoz9QK4/8At34yf9CnpH/f1f8A4/R/bvxk/wChT0j/AL+r/wDH6APMtC+HHii81yys73RbyG0+0L5zyptREyN5yeOg7dcCvoTxRpH9u+FtS0tVBe5t2SMHgb8ZX/x4CuI/t34yf9CnpH/f1f8A4/R/bvxk/wChT0j/AL+r/wDH6APLLD4b+LrzUbexm0W9ghMoDySJhIwSAzZ6dPT0r6I8RaCmteFLzQ4mWATW/lRHHCEfd/DIFcV/bvxk/wChT0j/AL+r/wDH6P7d+Mn/AEKekf8Af1f/AI/QBxnhiP4jfD66u7Cx8NSXQuWGd0DSxhgDhg6EDv3NR3vgzxzdeNNN1fVtPlup7uaKeZ4VysAD42MRwMKo/DHPWu3/ALd+Mn/Qp6R/39X/AOP0f278ZP8AoU9I/wC/q/8Ax+gDufE2jR+IfDd/pMmP9KhKqT/C/VT+DAH8K+YfDOgS614wstEdeZLnZMFOcKpy/I9ADXsF1rHxkmtJov8AhF9Mi3xsvmRSrvXI6r++PI7cGuR8J+DPiN4S1X+1bDwzbTztEY1+1XEZCg4yQBICDxj8TQB7+qqihVUKqjAAHAFLXmX9u/GT/oU9I/7+r/8AH6P7d+Mn/Qp6R/39X/4/QBzHiXwf4iuvjF/aNvpFzJZtfQSidV+TaNmTnoMYNe6V5l/bvxk/6FPSP+/q/wDx+j+3fjJ/0Kekf9/V/wDj9AHMXPhDxE3xoXUl0i5Nl/aqT/aAvyeWGBJz06V0nxj8Dap4jWz1XSITczWqNHLAp+ZlzkFc9cHPHXmn/wBu/GT/AKFPSP8Av6v/AMfo/t34yf8AQp6R/wB/V/8Aj9AGBaXvxS8RaLH4X/sf+z7cxi2mvbi3eJjGBg5LHByODtHNX/gp4a1rQtR1aTVdMuLNZIkRDMm3cQTnHrWh/bvxk/6FPSP+/q//AB+j+3fjJ/0Kekf9/V/+P0Ac9/wiXiD/AIXb/an9k3P2H+0fO+0bfk2eua9E+Jmm3mr/AA/1Ox0+3e5uZBEUiQZZsSoxx+ANc5/bvxk/6FPSP+/q/wDx+j+3fjJ/0Kekf9/V/wDj9AE/wZ0LUtG8MX0GrWEto810WWOZcFl2KM4/A1wWr+B/F/gTxY2peGbW5uYA7NbS2sRlIQ/wOuD0HHIwev07b+3fjJ/0Kekf9/V/+P0f278ZP+hT0j/v6v8A8foA4zXfC/xF8Y6ZLrmtQTF7bC21gI9rsCRuIjHT1JPJx6V33hfSPEen/BtdPs4pLLWlSVoUfCspMpYDngEj19aqf278ZP8AoU9I/wC/q/8Ax+j+3fjJ/wBCnpH/AH9X/wCP0Ac/eeLfitc6ZPo1z4Xkd5ojE9ythJkggg8g7M/hj2rpvhH4D1Dwpa3l9qyrFd3oVVgDBjGgyeSOMknp2x+UP9u/GT/oU9I/7+r/APH6P7d+Mn/Qp6R/39X/AOP0Ac98OfCXiDS/ibJfX2k3Nvar5+ZnXCndnGD3/Cuv+Mujalrng+2t9LspbuaO+SRo4lywUJIM4+pH51R/t34yf9CnpH/f1f8A4/R/bvxk/wChT0j/AL+r/wDH6ALPhTwlfXPwdfw7qEL2N1cJKAso5Qlyykj8q4PwxH8Rvh9dXdhY+GpLoXLDO6BpYwwBwwdCB37muz/t34yf9CnpH/f1f/j9H9u/GT/oU9I/7+r/APH6AOIvfBnjm68aabq+rafLdT3c0U8zwrlYAHxsYjgYVR+GOetdv8a9B1bXNL0waVYTXjQzOZFhXcVBAxx+FH9u/GT/AKFPSP8Av6v/AMfo/t34yf8AQp6R/wB/V/8Aj9AFiPwJJrvwhsNDv4Ps2pW0JeDzBzFLkkA+xBwfr7Vj/B+18WeHtRudG1XR7uHTpgZFkkXCxSAdj3DDjjuB71of278ZP+hT0j/v6v8A8fo/t34yf9CnpH/f1f8A4/QBz3/CJeIP+F2/2p/ZNz9h/tHzvtG35Nnrmuh+Neg6trml6YNKsJrxoZnMiwruKggY4/Cj+3fjJ/0Kekf9/V/+P0f278ZP+hT0j/v6v/x+gDq/AFhdaZ4G0qyvYGguIocSRv1U7iefzrzLRfCXiCD42S6pLpNylj/aNzN9oK/IUYvtOffIrov7d+Mn/Qp6R/39X/4/R/bvxk/6FPSP+/q//H6AON+Kiif4p248Pzzy6ufKVkjH+rmGNm0564wT2Hr1xpanqXxm8O2D6jfzI9pAMyER277R0yQo3fjWTdeCPiZceKX8SR6JHa37T+eDDcw7Vf2DSHj2Oa2NatfjL4g0uXTbvTo0t5fllEUtuhcehO/p9KAOx+HXjRvH+g30Go28cd1b4in8r7jq4OCAenRuPavNvhBJJoPxPn0m6+WWSKa0Ydt6EN/7IfzrV8IaL8UPBVrcW+meFrCX7S4eSS4uI2Y4GAOJgMDnt3qhdeDviVceMB4oTw5bW18Jlm2Q3MQjLDHYyk84555yaAPRvi5pGoa14Ia1020kup1uI38uMZbaM5IHfrR8I9J1DRvBK2upWktrObmR/LlGGwcYOKyf7d+Mn/Qp6R/39X/4/R/bvxk/6FPSP+/q/wDx+gDn/Hfw51/S/FT+KPCkTzB5vP8ALg5lhk6khf4lJyeM9cYxWfqt78U/HFqui3WjXVvbyMpkzZtbq+DxuZu2ecD06V2H9u/GT/oU9I/7+r/8fo/t34yf9CnpH/f1f/j9AHSfD7wYngrw99jeRJryd/MuZUHBboAM84A/qe9edfDnwl4g0v4myX19pNzb2q+fmZ1wp3Zxg9/wrof7d+Mn/Qp6R/39X/4/R/bvxk/6FPSP+/q//H6APTaK8y/t34yf9CnpH/f1f/j9H9u/GT/oU9I/7+r/APH6AOH1Twj4z8F+N5tW0LTbi5QTPJbTW8PnAo+RhlGccHHP1Fegy+G9d8e/DQWviULbawZmnty6bPLIJChgvQFSR68g9arf278ZP+hT0j/v6v8A8fo/t34yf9CnpH/f1f8A4/QByWiXPxQ+H8Mml2ugy3tqJCVQ2zXCAnqVMZzg9ev5V2XgzVPiRrfiSG616wGnaQqP5kXkiLcxHy8MS/X8Ki/t34yf9CnpH/f1f/j9H9u/GT/oU9I/7+r/APH6AMr40+GNc1zW9Nn0vS7i8jS3MbNCm7a24nn0r1XRoZLfRLCCZSkkVtGjqexCgEV5/wD278ZP+hT0j/v6v/x+j+3fjJ/0Kekf9/V/+P0Ac98R/CXiDU/ibHfWOk3Nxat5GJo1yo24zk9vxr1LxrZXOpeDNWs7OIzXE1q6xxr1Y46CuO/t34yf9CnpH/f1f/j9H9u/GT/oU9I/7+r/APH6AIvgl4f1fQrfWDqunT2XntD5YmTaW2788fiKxfjH4T1/W/GFtdaZpNzdwGzSPzIkyAwd8g+nUda3/wC3fjJ/0Kekf9/V/wDj9H9u/GT/AKFPSP8Av6v/AMfoA0/ivo+o6x4DFpp1pJdXCzxuYoxlsAHPHfrT/hHpOoaL4JW11K0ktZzcyP5cow2DjBx+FZP9u/GT/oU9I/7+r/8AH6P7d+Mn/Qp6R/39X/4/QBz3w58JeINL+Jsl9faTc29qvn5mdcKd2cYPf8K6/wCMujalrng+2t9LspbuaO+SRo4lywUJIM4+pH51R/t34yf9CnpH/f1f/j9H9u/GT/oU9I/7+r/8foAs+FPCV9c/B1/DuoQvY3VwkoCyjlCXLKSPyrg/DEfxG+H11d2Fj4akuhcsM7oGljDAHDB0IHfua7P+3fjJ/wBCnpH/AH9X/wCP0f278ZP+hT0j/v6v/wAfoA4i98GeObrxppur6tp8t1PdzRTzPCuVgAfGxiOBhVH4Y561658RfDdx4q8HXWnWe03QZZYQxwGZT0z2yMiua/t34yf9CnpH/f1f/j9H9u/GT/oU9I/7+r/8foA4/wAFL8S/DlzFodlpN3BaS3SyStNaZRRkBiHIxjA9fpW38afDGua5remz6XpdxeRpbmNmhTdtbcTz6Vq/278ZP+hT0j/v6v8A8fo/t34yf9CnpH/f1f8A4/QBv+JdKvrv4VzaXb2zyXpsI4xCv3iwC5H6GsD4KaDq2h6Xqg1XT57NppkMazLtLAA54o/t34yf9CnpH/f1f/j9H9u/GT/oU9I/7+r/APH6AML4y+Fde1zxdZ3Wl6Vc3kIsUiLxJkBhI5IPpww/OrvxxFgvhnR4rid01CNj5MKjIZdoDlueMcYP4epGh/bvxk/6FPSP+/q//H65Txh4W+JnjW7t7rUvDdrDJbxmNfs1zGoIJzzulNAE2iwfGSDw/aNpsrfYxCpgjk+zlwmPlHzjPTHBra+G3xQ1bXPEP/CPa/DGbhw/lTImxg6gkqy9OgPTHT8qVsfjXaadHp8VhFtji2JIz25cADA53Yz9axfDfgv4k+GdeOtW3h23ursqw3XV1EwBbq3EoOev5mgD3+vD/Hfw48RaZ4sfxJ4WhkmSWf7Qq25zLBJ1Py9wTk8Z64I9ej/t34yf9CnpH/f1f/j9H9u/GT/oU9I/7+r/APH6AOfsbr4seLL+0tLy3urCzinRp5Hg+yggEE5JwW+gro/ix8OrrxUsGraQqNqFtGY5Imbb5ydQAemQSevXPtTP7d+Mn/Qp6R/39X/4/R/bvxk/6FPSP+/q/wDx+gDkYPEXxattLXRI9HvwETyVuPsDlwuMD58Y6d/1rrPhV8Nbvw1PJretBBfSx7IYAdxhB+8WPTcenHQZ9eHf278ZP+hT0j/v6v8A8fo/t34yf9CnpH/f1f8A4/QBz3xH8JeINT+Jsd9Y6Tc3Fq3kYmjXKjbjOT2/GvWfFFrPe+E9YtLaMyTz2E8caDqzNGwA/M1w/wDbvxk/6FPSP+/q/wDx+j+3fjJ/0Kekf9/V/wDj9AFL4J+HNa0O51eTVdNuLNZUiWMzJt3EFs4/MVl/8Il4g/4Xb/an9k3P2H+0fO+0bfk2eua6H+3fjJ/0Kekf9/V/+P0f278ZP+hT0j/v6v8A8foA6P4mabeav8P9TsdPt3ubmQRFIkGWbEqMcfgDWJ8GND1PRfDN9Dq1hLaPNdllSZcFl2KM4/A1X/t34yf9CnpH/f1f/j9H9u/GT/oU9I/7+r/8foA5XU/AXi7wJ4rbWPCVu91al2MIiG9lQ/8ALN1PJHbIz0ByDWgPGPxe1hfstr4b+wyHjzvsLxH85W21tf278ZP+hT0j/v6v/wAfo/t34yf9CnpH/f1f/j9AHXav4fk8SeCX0XVJB9pntUWSUchZgAd3HbcM14xpul/Ev4d3tzDpenXM0UjYfyIDcRSY6MMDI6+x9a7n+3fjJ/0Kekf9/V/+P0f278ZP+hT0j/v6v/x+gC38N7XxpPqV/rPi1pYxcRLHBBIQu3BJyEHCj68muL+IHgrxPpvjyTxJoVjPdRyTrcxPbx+Y0cgwSCoyeoz0wc11P9u/GT/oU9I/7+r/APH6P7d+Mn/Qp6R/39X/AOP0AaXhO58Ya34Q1hvEtq0NzOjpaQtCImwY8fd68n1965j4LeGNc0PW9Sn1TS7izje3EatMm3c24HA9a1f7d+Mn/Qp6R/39X/4/R/bvxk/6FPSP+/q//H6AM/4p/DXU9T1f/hJPD0fmzlV+0QI2JCy8B19eAOOvHfNYN7rvxZ13TG0OXRr1EmTypZRYNE0i9CC5AUA98Yrrv7d+Mn/Qp6R/39X/AOP0f278ZP8AoU9I/wC/q/8Ax+gDS+F/w/k8GafPcX7RvqV5jfsOREg6ID3OeT26ema4z/hEvEH/AAu3+1P7JufsP9o+d9o2/Js9c10P9u/GT/oU9I/7+r/8fo/t34yf9CnpH/f1f/j9AHR/EzTbzV/h/qdjp9u9zcyCIpEgyzYlRjj8AaxPgvomqaH4avYtUsZrOSW73oky7SV2KM4+oNV/7d+Mn/Qp6R/39X/4/R/bvxk/6FPSP+/q/wDx+gDiPi08niH4pRaTanfJGkNmo7b2O7/2f9K+gIIUt4I4IxhI1CKPQAYFeDWXg/4lWfi9vFB8OW1zfNM822e5iMYZs9AJQeM8c8cV7B4Ru/E15pUsnirTrawvROVjjt2BUx7VweHbnJYde3SgDdooooAxfBn/ACJGg/8AYNt//Ra1tVi+DP8AkSNB/wCwbb/+i1raoAKKKKACiiigAooooAxfBn/IkaD/ANg23/8ARa1tVi+DP+RI0H/sG2//AKLWtqgAooooAKKKKACiiigAooooAKKKKACiiigAooooAKKKKACiiigAooooAKKKKACiiigAooooAKKKKACiiigAooooAKKKKACiiigAooooAKKKKACiiigAooooAKKKKACiiigAooooAKKKKACiiigAooooAKKKKACiiigAooooAKKKKACiiigAooooAKKKKACiiigAooooAKKKKACiiigAooooAKKKKACiiigAooooAKKKKACiiigAooooAKKKKACiiigAooooAKKKKACiiigAooooAKKKKACiiigAooooAxfBn/IkaD/2Dbf/ANFrW1WL4M/5EjQf+wbb/wDota2qACiiigAooooAKKKKAMX/AIQ3wsf+Za0j/wAAYv8A4mj/AIQzwr/0LOkf+AMX/wATW1RQBi/8IZ4V/wChZ0j/AMAYv/iaP+EM8K/9CzpH/gDF/wDE1tUUAYv/AAhnhX/oWdI/8AYv/iaP+EM8K/8AQs6R/wCAMX/xNbVFAGL/AMIZ4V/6FnSP/AGL/wCJo/4Qzwr/ANCzpH/gDF/8TW1RQBi/8IZ4V/6FnSP/AABi/wDiaP8AhDPCv/Qs6R/4Axf/ABNbVFAGL/whnhX/AKFnSP8AwBi/+Jo/4Qzwr/0LOkf+AMX/AMTW1RQBi/8ACGeFf+hZ0j/wBi/+Jo/4Qzwr/wBCzpH/AIAxf/E1tUUAYv8AwhnhX/oWdI/8AYv/AImj/hDPCv8A0LOkf+AMX/xNbVFAGL/whnhX/oWdI/8AAGL/AOJo/wCEM8K/9CzpH/gDF/8AE1tUUAYv/CGeFf8AoWdI/wDAGL/4mj/hDPCv/Qs6R/4Axf8AxNbVFAGL/wAIZ4V/6FnSP/AGL/4mj/hDPCv/AELOkf8AgDF/8TW1RQBi/wDCGeFf+hZ0j/wBi/8AiaP+EM8K/wDQs6R/4Axf/E1tUUAYv/CGeFf+hZ0j/wAAYv8A4mj/AIQzwr/0LOkf+AMX/wATW1RQBi/8IZ4V/wChZ0j/AMAYv/iaP+EM8K/9CzpH/gDF/wDE1tUUAYv/AAhnhX/oWdI/8AYv/iaP+EM8K/8AQs6R/wCAMX/xNbVFAGL/AMIZ4V/6FnSP/AGL/wCJo/4Qzwr/ANCzpH/gDF/8TW1RQBi/8IZ4V/6FnSP/AABi/wDiaP8AhDPCv/Qs6R/4Axf/ABNbVFAGL/whnhX/AKFnSP8AwBi/+Jo/4Qzwr/0LOkf+AMX/AMTW1RQBi/8ACGeFf+hZ0j/wBi/+Jo/4Qzwr/wBCzpH/AIAxf/E1tUUAYv8AwhnhX/oWdI/8AYv/AImj/hDPCv8A0LOkf+AMX/xNbVFAGL/whnhX/oWdI/8AAGL/AOJo/wCEM8K/9CzpH/gDF/8AE1tUUAYv/CGeFf8AoWdI/wDAGL/4mj/hDPCv/Qs6R/4Axf8AxNbVFAGL/wAIZ4V/6FnSP/AGL/4mj/hDPCv/AELOkf8AgDF/8TW1RQBi/wDCGeFf+hZ0j/wBi/8AiaP+EM8K/wDQs6R/4Axf/E1tUUAYv/CGeFf+hZ0j/wAAYv8A4mj/AIQzwr/0LOkf+AMX/wATW1RQBi/8IZ4V/wChZ0j/AMAYv/iaP+EM8K/9CzpH/gDF/wDE1tUUAYv/AAhnhX/oWdI/8AYv/iaP+EM8K/8AQs6R/wCAMX/xNbVFAGL/AMIZ4V/6FnSP/AGL/wCJo/4Qzwr/ANCzpH/gDF/8TW1RQBi/8IZ4V/6FnSP/AABi/wDiaP8AhDPCv/Qs6R/4Axf/ABNbVFAGL/whnhX/AKFnSP8AwBi/+Jo/4Qzwr/0LOkf+AMX/AMTW1RQBi/8ACGeFf+hZ0j/wBi/+Jo/4Qzwr/wBCzpH/AIAxf/E1tUUAYv8AwhnhX/oWdI/8AYv/AImj/hDPCv8A0LOkf+AMX/xNbVFAGL/whnhX/oWdI/8AAGL/AOJo/wCEM8K/9CzpH/gDF/8AE1tUUAYv/CGeFf8AoWdI/wDAGL/4mj/hDPCv/Qs6R/4Axf8AxNbVFAGL/wAIZ4V/6FnSP/AGL/4mj/hDPCv/AELOkf8AgDF/8TW1RQBi/wDCGeFf+hZ0j/wBi/8AiaP+EM8K/wDQs6R/4Axf/E1tUUAYv/CGeFf+hZ0j/wAAYv8A4mj/AIQzwr/0LOkf+AMX/wATW1RQBi/8IZ4V/wChZ0j/AMAYv/iaP+EM8K/9CzpH/gDF/wDE1tUUAYv/AAhnhX/oWdI/8AYv/iaP+EM8K/8AQs6R/wCAMX/xNbVFAGL/AMIZ4V/6FnSP/AGL/wCJo/4Qzwr/ANCzpH/gDF/8TW1RQBi/8IZ4V/6FnSP/AABi/wDiaP8AhDPCv/Qs6R/4Axf/ABNbVFAGL/whnhX/AKFnSP8AwBi/+Jo/4Qzwr/0LOkf+AMX/AMTW1RQBi/8ACGeFf+hZ0j/wBi/+Jo/4Qzwr/wBCzpH/AIAxf/E1tUUAYv8AwhnhX/oWdI/8AYv/AImj/hDPCv8A0LOkf+AMX/xNbVFAGL/whnhX/oWdI/8AAGL/AOJo/wCEM8K/9CzpH/gDF/8AE1tUUAYv/CGeFf8AoWdI/wDAGL/4mj/hDPCv/Qs6R/4Axf8AxNbVFAGL/wAIZ4V/6FnSP/AGL/4mj/hDPCv/AELOkf8AgDF/8TW1RQBi/wDCGeFf+hZ0j/wBi/8AiaP+EM8K/wDQs6R/4Axf/E1tUUAYv/CGeFf+hZ0j/wAAYv8A4mj/AIQzwr/0LOkf+AMX/wATW1RQBi/8IZ4V/wChZ0j/AMAYv/iaP+EM8K/9CzpH/gDF/wDE1tUUAYv/AAhnhX/oWdI/8AYv/iaP+EM8K/8AQs6R/wCAMX/xNbVFAGL/AMIZ4V/6FnSP/AGL/wCJo/4Qzwr/ANCzpH/gDF/8TW1RQBi/8IZ4V/6FnSP/AABi/wDiaP8AhDPCv/Qs6R/4Axf/ABNbVFAGL/whnhX/AKFnSP8AwBi/+Jo/4Qzwr/0LOkf+AMX/AMTW1RQBi/8ACGeFf+hZ0j/wBi/+Jo/4Qzwr/wBCzpH/AIAxf/E1tUUAYv8AwhnhX/oWdI/8AYv/AImj/hDPCv8A0LOkf+AMX/xNbVFADIYYreGOCCNIoo1CJGihVVQMAADoAKfRRQAUUUUAFFFFABRRRQAUUUUAFFFFABRRRQAUUUUAFFFFABRRRQAUUUUAFFFFABRRRQAUUUUAFFFFABRRRQAUUUUAFFFFABRRRQAUUUUAFFFFABRRRQAUUUUAFFFFABRRRQAUUUUAFFFFABRRRQAUUUUAFFFFABRRRQAUUUUAFFFFABRRRQAUUUUAFFFFABRRRQAUUUUAFFFFABRRRQAUUUUAFFFFABRRRQAUUUUAFFFFABRRRQAUUUUAFFFFABRRRQAUUUUAFFFFABRRRQAUUUUAFFFFABRRRQAUUUUAFFFFABRRRQAUUUUAFFFFABRRRQAUUUUAf//Z;imageAspect=1;imageVerticalAlign=top;imageWidth=320;imageHeight=240;" parent="1" vertex="1">
          <mxGeometry x="331" y="112" width="333" height="246" as="geometry" />
        </mxCell>
        <mxCell id="tzSJRUm39LDdc5LxJkue-57" value="" style="edgeStyle=orthogonalEdgeStyle;curved=1;rounded=0;orthogonalLoop=1;jettySize=auto;html=1;endArrow=classic;endFill=1;strokeWidth=3;" parent="1" source="tzSJRUm39LDdc5LxJkue-51" target="tzSJRUm39LDdc5LxJkue-56" edge="1">
          <mxGeometry relative="1" as="geometry" />
        </mxCell>
        <mxCell id="tzSJRUm39LDdc5LxJkue-51" value="Формируется &lt;b&gt;HTTP&lt;/b&gt; запрос.&lt;br&gt;HTTP заголовок это простой текст. В начале текста идет строчка с указанием:&lt;br&gt;&lt;ol&gt;&lt;li&gt;Метода запроса, путь до ресурса, весия потокола &lt;b&gt;&lt;i&gt;GET /resource HTTP/1.1&lt;/i&gt;&lt;/b&gt;&lt;/li&gt;&lt;li&gt;Имя хоста (с верии 1.0)&lt;/li&gt;&lt;li&gt;Загловки (option)&lt;/li&gt;&lt;li&gt;Тело запроса (option)&lt;/li&gt;&lt;/ol&gt;&lt;div&gt;После запроса получаем HTTP ответ со &lt;b&gt;статус кодом&lt;/b&gt;&lt;br&gt;&lt;/div&gt;" style="whiteSpace=wrap;html=1;rounded=1;align=left;arcSize=6;" parent="1" vertex="1">
          <mxGeometry y="713" width="481" height="148" as="geometry" />
        </mxCell>
        <mxCell id="tzSJRUm39LDdc5LxJkue-55" style="edgeStyle=orthogonalEdgeStyle;curved=1;rounded=0;orthogonalLoop=1;jettySize=auto;html=1;exitX=0.25;exitY=1;exitDx=0;exitDy=0;entryX=1;entryY=0;entryDx=0;entryDy=0;strokeWidth=3;dashed=1;" parent="1" source="tzSJRUm39LDdc5LxJkue-53" target="tzSJRUm39LDdc5LxJkue-51" edge="1">
          <mxGeometry relative="1" as="geometry" />
        </mxCell>
        <mxCell id="tzSJRUm39LDdc5LxJkue-53" value="Если протокол https, идет &lt;b&gt;TLS handshake&lt;/b&gt;&lt;br&gt;Обмен сертификатами, проверка подлинности сертификатов, обмен публичными ключами.&lt;br&gt;" style="whiteSpace=wrap;html=1;rounded=1;align=left;arcSize=6;" parent="1" vertex="1">
          <mxGeometry x="266" y="550" width="258" height="79" as="geometry" />
        </mxCell>
        <mxCell id="tzSJRUm39LDdc5LxJkue-56" value="Браузер парсит &lt;b&gt;HTML&lt;/b&gt; страницу." style="whiteSpace=wrap;html=1;rounded=1;align=left;arcSize=6;" parent="1" vertex="1">
          <mxGeometry y="991" width="308" height="109" as="geometry" />
        </mxCell>
      </root>
    </mxGraphModel>
  </diagram>
</mxfile>
